<?xml version="1.0" encoding="utf-8"?>
<!-- Generator: Adobe Illustrator 22.0.1, SVG Export Plug-In . SVG Version: 6.00 Build 0)  -->
<svg version="1.1" id="Layer_1" xmlns="http://www.w3.org/2000/svg" xmlns:xlink="http://www.w3.org/1999/xlink" x="0px" y="0px"
	 viewBox="0 0 1864.9 1870.9" style="enable-background:new 0 0 1864.9 1870.9;" xml:space="preserve">
<style type="text/css">
	.st0{fill:#FFFFFF;}
	.st1{display:none;}
	.st2{display:inline;opacity:7.000000e-02;}
	.st3{fill:none;stroke:#FFFFFF;stroke-width:15;stroke-miterlimit:10;}
	.st4{fill:url(#SVGID_1_);}
	.st5{opacity:0.22;fill:url(#SVGID_2_);}
	.st6{fill:#EFF0EB;}
	.st7{fill:#D1D2D4;}
	.st8{fill:#F7F6F4;}
	.st9{fill:#BFC1C2;}
	.st10{fill:#EC534C;}
	.st11{fill:#E6E7E9;}
	.st12{opacity:0.15;}
</style>
<rect x="0.7" y="6.7" class="st0" width="1860.2" height="1860.2"/>
<g id="Layer_4" class="st1">
	<g class="st2">
		<line class="st3" x1="90" y1="523.8" x2="1776.9" y2="523.8"/>
		<line class="st3" x1="90" y1="954.6" x2="1776.9" y2="954.6"/>
		<line class="st3" x1="90" y1="132.2" x2="1776.9" y2="132.2"/>
		<line class="st3" x1="90" y1="1385.4" x2="1776.9" y2="1385.4"/>
		<line class="st3" x1="90" y1="563" x2="1776.9" y2="563"/>
		<line class="st3" x1="90" y1="993.8" x2="1776.9" y2="993.8"/>
		<line class="st3" x1="90" y1="171.3" x2="1776.9" y2="171.3"/>
		<line class="st3" x1="90" y1="1424.5" x2="1776.9" y2="1424.5"/>
		<line class="st3" x1="90" y1="602.1" x2="1776.9" y2="602.1"/>
		<line class="st3" x1="90" y1="1032.9" x2="1776.9" y2="1032.9"/>
		<line class="st3" x1="90" y1="210.5" x2="1776.9" y2="210.5"/>
		<line class="st3" x1="90" y1="1463.7" x2="1776.9" y2="1463.7"/>
		<line class="st3" x1="90" y1="641.3" x2="1776.9" y2="641.3"/>
		<line class="st3" x1="90" y1="1072.1" x2="1776.9" y2="1072.1"/>
		<line class="st3" x1="90" y1="249.7" x2="1776.9" y2="249.7"/>
		<line class="st3" x1="90" y1="1502.9" x2="1776.9" y2="1502.9"/>
		<line class="st3" x1="90" y1="680.5" x2="1776.9" y2="680.5"/>
		<line class="st3" x1="90" y1="1111.2" x2="1776.9" y2="1111.2"/>
		<line class="st3" x1="90" y1="288.8" x2="1776.9" y2="288.8"/>
		<line class="st3" x1="90" y1="1542" x2="1776.9" y2="1542"/>
		<line class="st3" x1="90" y1="719.6" x2="1776.9" y2="719.6"/>
		<line class="st3" x1="90" y1="1150.4" x2="1776.9" y2="1150.4"/>
		<line class="st3" x1="90" y1="328" x2="1776.9" y2="328"/>
		<line class="st3" x1="90" y1="1581.2" x2="1776.9" y2="1581.2"/>
		<line class="st3" x1="90" y1="758.8" x2="1776.9" y2="758.8"/>
		<line class="st3" x1="90" y1="1189.6" x2="1776.9" y2="1189.6"/>
		<line class="st3" x1="90" y1="367.1" x2="1776.9" y2="367.1"/>
		<line class="st3" x1="90" y1="1620.4" x2="1776.9" y2="1620.4"/>
		<line class="st3" x1="90" y1="797.9" x2="1776.9" y2="797.9"/>
		<line class="st3" x1="90" y1="1228.7" x2="1776.9" y2="1228.7"/>
		<line class="st3" x1="90" y1="406.3" x2="1776.9" y2="406.3"/>
		<line class="st3" x1="90" y1="1659.5" x2="1776.9" y2="1659.5"/>
		<line class="st3" x1="90" y1="837.1" x2="1776.9" y2="837.1"/>
		<line class="st3" x1="90" y1="1267.9" x2="1776.9" y2="1267.9"/>
		<line class="st3" x1="90" y1="445.5" x2="1776.9" y2="445.5"/>
		<line class="st3" x1="90" y1="1698.7" x2="1776.9" y2="1698.7"/>
		<line class="st3" x1="90" y1="876.3" x2="1776.9" y2="876.3"/>
		<line class="st3" x1="90" y1="1307.1" x2="1776.9" y2="1307.1"/>
		<line class="st3" x1="90" y1="484.6" x2="1776.9" y2="484.6"/>
		<line class="st3" x1="90" y1="1737.8" x2="1776.9" y2="1737.8"/>
		<line class="st3" x1="90" y1="915.4" x2="1776.9" y2="915.4"/>
		<line class="st3" x1="90" y1="1346.2" x2="1776.9" y2="1346.2"/>
		<line class="st3" x1="90" y1="93" x2="1776.9" y2="93"/>
		<line class="st3" x1="90" y1="1777" x2="1776.9" y2="1777"/>
	</g>
</g>
<g id="Layer_4_1_" class="st1">
	<g class="st2">
		<line class="st3" x1="1854.7" y1="531.3" x2="3541.6" y2="531.3"/>
		<line class="st3" x1="1854.7" y1="962.1" x2="3541.6" y2="962.1"/>
		<line class="st3" x1="1854.7" y1="139.7" x2="3541.6" y2="139.7"/>
		<line class="st3" x1="1854.7" y1="1392.9" x2="3541.6" y2="1392.9"/>
		<line class="st3" x1="1854.7" y1="570.5" x2="3541.6" y2="570.5"/>
		<line class="st3" x1="1854.7" y1="1001.3" x2="3541.6" y2="1001.3"/>
		<line class="st3" x1="1854.7" y1="178.8" x2="3541.6" y2="178.8"/>
		<line class="st3" x1="1854.7" y1="1432" x2="3541.6" y2="1432"/>
		<line class="st3" x1="1854.7" y1="609.6" x2="3541.6" y2="609.6"/>
		<line class="st3" x1="1854.7" y1="1040.4" x2="3541.6" y2="1040.4"/>
		<line class="st3" x1="1854.7" y1="218" x2="3541.6" y2="218"/>
		<line class="st3" x1="1854.7" y1="1471.2" x2="3541.6" y2="1471.2"/>
		<line class="st3" x1="1854.7" y1="648.8" x2="3541.6" y2="648.8"/>
		<line class="st3" x1="1854.7" y1="1079.6" x2="3541.6" y2="1079.6"/>
		<line class="st3" x1="1854.7" y1="257.2" x2="3541.6" y2="257.2"/>
		<line class="st3" x1="1854.7" y1="1510.4" x2="3541.6" y2="1510.4"/>
		<line class="st3" x1="1854.7" y1="688" x2="3541.6" y2="688"/>
		<line class="st3" x1="1854.7" y1="1118.7" x2="3541.6" y2="1118.7"/>
		<line class="st3" x1="1854.7" y1="296.3" x2="3541.6" y2="296.3"/>
		<line class="st3" x1="1854.7" y1="1549.5" x2="3541.6" y2="1549.5"/>
		<line class="st3" x1="1854.7" y1="727.1" x2="3541.6" y2="727.1"/>
		<line class="st3" x1="1854.7" y1="1157.9" x2="3541.6" y2="1157.9"/>
		<line class="st3" x1="1854.7" y1="335.5" x2="3541.6" y2="335.5"/>
		<line class="st3" x1="1854.7" y1="1588.7" x2="3541.6" y2="1588.7"/>
		<line class="st3" x1="1854.7" y1="766.3" x2="3541.6" y2="766.3"/>
		<line class="st3" x1="1854.7" y1="1197.1" x2="3541.6" y2="1197.1"/>
		<line class="st3" x1="1854.7" y1="374.6" x2="3541.6" y2="374.6"/>
		<line class="st3" x1="1854.7" y1="1627.9" x2="3541.6" y2="1627.9"/>
		<line class="st3" x1="1854.7" y1="805.4" x2="3541.6" y2="805.4"/>
		<line class="st3" x1="1854.7" y1="1236.2" x2="3541.6" y2="1236.2"/>
		<line class="st3" x1="1854.7" y1="413.8" x2="3541.6" y2="413.8"/>
		<line class="st3" x1="1854.7" y1="1667" x2="3541.6" y2="1667"/>
		<line class="st3" x1="1854.7" y1="844.6" x2="3541.6" y2="844.6"/>
		<line class="st3" x1="1854.7" y1="1275.4" x2="3541.6" y2="1275.4"/>
		<line class="st3" x1="1854.7" y1="453" x2="3541.6" y2="453"/>
		<line class="st3" x1="1854.7" y1="1706.2" x2="3541.6" y2="1706.2"/>
		<line class="st3" x1="1854.7" y1="883.8" x2="3541.6" y2="883.8"/>
		<line class="st3" x1="1854.7" y1="1314.6" x2="3541.6" y2="1314.6"/>
		<line class="st3" x1="1854.7" y1="492.1" x2="3541.6" y2="492.1"/>
		<line class="st3" x1="1854.7" y1="1745.3" x2="3541.6" y2="1745.3"/>
		<line class="st3" x1="1854.7" y1="922.9" x2="3541.6" y2="922.9"/>
		<line class="st3" x1="1854.7" y1="1353.7" x2="3541.6" y2="1353.7"/>
		<line class="st3" x1="1854.7" y1="100.5" x2="3541.6" y2="100.5"/>
		<line class="st3" x1="1854.7" y1="1784.5" x2="3541.6" y2="1784.5"/>
	</g>
</g>
<g id="Layer_4_2_" class="st1">
	<g class="st2">
		<line class="st3" x1="2170.5" y1="404.2" x2="3857.4" y2="404.2"/>
		<line class="st3" x1="2170.5" y1="834.9" x2="3857.4" y2="834.9"/>
		<line class="st3" x1="2170.5" y1="12.5" x2="3857.4" y2="12.5"/>
		<line class="st3" x1="2170.5" y1="1265.7" x2="3857.4" y2="1265.7"/>
		<line class="st3" x1="2170.5" y1="443.3" x2="3857.4" y2="443.3"/>
		<line class="st3" x1="2170.5" y1="874.1" x2="3857.4" y2="874.1"/>
		<line class="st3" x1="2170.5" y1="51.7" x2="3857.4" y2="51.7"/>
		<line class="st3" x1="2170.5" y1="1304.9" x2="3857.4" y2="1304.9"/>
		<line class="st3" x1="2170.5" y1="482.5" x2="3857.4" y2="482.5"/>
		<line class="st3" x1="2170.5" y1="913.3" x2="3857.4" y2="913.3"/>
		<line class="st3" x1="2170.5" y1="90.9" x2="3857.4" y2="90.9"/>
		<line class="st3" x1="2170.5" y1="1344.1" x2="3857.4" y2="1344.1"/>
		<line class="st3" x1="2170.5" y1="521.6" x2="3857.4" y2="521.6"/>
		<line class="st3" x1="2170.5" y1="952.4" x2="3857.4" y2="952.4"/>
		<line class="st3" x1="2170.5" y1="130" x2="3857.4" y2="130"/>
		<line class="st3" x1="2170.5" y1="1383.2" x2="3857.4" y2="1383.2"/>
		<line class="st3" x1="2170.5" y1="560.8" x2="3857.4" y2="560.8"/>
		<line class="st3" x1="2170.5" y1="991.6" x2="3857.4" y2="991.6"/>
		<line class="st3" x1="2170.5" y1="169.2" x2="3857.4" y2="169.2"/>
		<line class="st3" x1="2170.5" y1="1422.4" x2="3857.4" y2="1422.4"/>
		<line class="st3" x1="2170.5" y1="600" x2="3857.4" y2="600"/>
		<line class="st3" x1="2170.5" y1="1030.8" x2="3857.4" y2="1030.8"/>
		<line class="st3" x1="2170.5" y1="208.3" x2="3857.4" y2="208.3"/>
		<line class="st3" x1="2170.5" y1="1461.6" x2="3857.4" y2="1461.6"/>
		<line class="st3" x1="2170.5" y1="639.1" x2="3857.4" y2="639.1"/>
		<line class="st3" x1="2170.5" y1="1069.9" x2="3857.4" y2="1069.9"/>
		<line class="st3" x1="2170.5" y1="247.5" x2="3857.4" y2="247.5"/>
		<line class="st3" x1="2170.5" y1="1500.7" x2="3857.4" y2="1500.7"/>
		<line class="st3" x1="2170.5" y1="678.3" x2="3857.4" y2="678.3"/>
		<line class="st3" x1="2170.5" y1="1109.1" x2="3857.4" y2="1109.1"/>
		<line class="st3" x1="2170.5" y1="286.7" x2="3857.4" y2="286.7"/>
		<line class="st3" x1="2170.5" y1="1539.9" x2="3857.4" y2="1539.9"/>
		<line class="st3" x1="2170.5" y1="717.5" x2="3857.4" y2="717.5"/>
		<line class="st3" x1="2170.5" y1="1148.2" x2="3857.4" y2="1148.2"/>
		<line class="st3" x1="2170.5" y1="325.8" x2="3857.4" y2="325.8"/>
		<line class="st3" x1="2170.5" y1="1579" x2="3857.4" y2="1579"/>
		<line class="st3" x1="2170.5" y1="756.6" x2="3857.4" y2="756.6"/>
		<line class="st3" x1="2170.5" y1="1187.4" x2="3857.4" y2="1187.4"/>
		<line class="st3" x1="2170.5" y1="365" x2="3857.4" y2="365"/>
		<line class="st3" x1="2170.5" y1="1618.2" x2="3857.4" y2="1618.2"/>
		<line class="st3" x1="2170.5" y1="795.8" x2="3857.4" y2="795.8"/>
		<line class="st3" x1="2170.5" y1="1226.6" x2="3857.4" y2="1226.6"/>
		<line class="st3" x1="2170.5" y1="-26.6" x2="3857.4" y2="-26.6"/>
		<line class="st3" x1="2170.5" y1="1657.4" x2="3857.4" y2="1657.4"/>
	</g>
</g>
<g id="Layer_4_4_" class="st1">
	<g class="st2">
		<line class="st3" x1="2415.5" y1="668.5" x2="4102.4" y2="668.5"/>
		<line class="st3" x1="2415.5" y1="1099.3" x2="4102.4" y2="1099.3"/>
		<line class="st3" x1="2415.5" y1="276.8" x2="4102.4" y2="276.8"/>
		<line class="st3" x1="2415.5" y1="1530" x2="4102.4" y2="1530"/>
		<line class="st3" x1="2415.5" y1="707.6" x2="4102.4" y2="707.6"/>
		<line class="st3" x1="2415.5" y1="1138.4" x2="4102.4" y2="1138.4"/>
		<line class="st3" x1="2415.5" y1="316" x2="4102.4" y2="316"/>
		<line class="st3" x1="2415.5" y1="1569.2" x2="4102.4" y2="1569.2"/>
		<line class="st3" x1="2415.5" y1="746.8" x2="4102.4" y2="746.8"/>
		<line class="st3" x1="2415.5" y1="1177.6" x2="4102.4" y2="1177.6"/>
		<line class="st3" x1="2415.5" y1="355.2" x2="4102.4" y2="355.2"/>
		<line class="st3" x1="2415.5" y1="1608.4" x2="4102.4" y2="1608.4"/>
		<line class="st3" x1="2415.5" y1="786" x2="4102.4" y2="786"/>
		<line class="st3" x1="2415.5" y1="1216.7" x2="4102.4" y2="1216.7"/>
		<line class="st3" x1="2415.5" y1="394.3" x2="4102.4" y2="394.3"/>
		<line class="st3" x1="2415.5" y1="1647.5" x2="4102.4" y2="1647.5"/>
		<line class="st3" x1="2415.5" y1="825.1" x2="4102.4" y2="825.1"/>
		<line class="st3" x1="2415.5" y1="1255.9" x2="4102.4" y2="1255.9"/>
		<line class="st3" x1="2415.5" y1="433.5" x2="4102.4" y2="433.5"/>
		<line class="st3" x1="2415.5" y1="1686.7" x2="4102.4" y2="1686.7"/>
		<line class="st3" x1="2415.5" y1="864.3" x2="4102.4" y2="864.3"/>
		<line class="st3" x1="2415.5" y1="1295.1" x2="4102.4" y2="1295.1"/>
		<line class="st3" x1="2415.5" y1="472.7" x2="4102.4" y2="472.7"/>
		<line class="st3" x1="2415.5" y1="1725.9" x2="4102.4" y2="1725.9"/>
		<line class="st3" x1="2415.5" y1="903.4" x2="4102.4" y2="903.4"/>
		<line class="st3" x1="2415.5" y1="1334.2" x2="4102.4" y2="1334.2"/>
		<line class="st3" x1="2415.5" y1="511.8" x2="4102.4" y2="511.8"/>
		<line class="st3" x1="2415.5" y1="1765" x2="4102.4" y2="1765"/>
		<line class="st3" x1="2415.5" y1="942.6" x2="4102.4" y2="942.6"/>
		<line class="st3" x1="2415.5" y1="1373.4" x2="4102.4" y2="1373.4"/>
		<line class="st3" x1="2415.5" y1="551" x2="4102.4" y2="551"/>
		<line class="st3" x1="2415.5" y1="1804.2" x2="4102.4" y2="1804.2"/>
		<line class="st3" x1="2415.5" y1="981.8" x2="4102.4" y2="981.8"/>
		<line class="st3" x1="2415.5" y1="1412.6" x2="4102.4" y2="1412.6"/>
		<line class="st3" x1="2415.5" y1="590.1" x2="4102.4" y2="590.1"/>
		<line class="st3" x1="2415.5" y1="1843.3" x2="4102.4" y2="1843.3"/>
		<line class="st3" x1="2415.5" y1="1020.9" x2="4102.4" y2="1020.9"/>
		<line class="st3" x1="2415.5" y1="1451.7" x2="4102.4" y2="1451.7"/>
		<line class="st3" x1="2415.5" y1="629.3" x2="4102.4" y2="629.3"/>
		<line class="st3" x1="2415.5" y1="1882.5" x2="4102.4" y2="1882.5"/>
		<line class="st3" x1="2415.5" y1="1060.1" x2="4102.4" y2="1060.1"/>
		<line class="st3" x1="2415.5" y1="1490.9" x2="4102.4" y2="1490.9"/>
		<line class="st3" x1="2415.5" y1="237.7" x2="4102.4" y2="237.7"/>
		<line class="st3" x1="2415.5" y1="1921.7" x2="4102.4" y2="1921.7"/>
	</g>
</g>
<g>
	
		<linearGradient id="SVGID_1_" gradientUnits="userSpaceOnUse" x1="356.9289" y1="-62.282" x2="1507.9712" y2="1931.382" gradientTransform="matrix(1 0 0 -1 0 1870)">
		<stop  offset="0" style="stop-color:#4D98F7"/>
		<stop  offset="1" style="stop-color:#C94DF7"/>
	</linearGradient>
	<polygon class="st4" points="1775.4,1777.9 1775.4,93 89.5,93 89.5,1777.9 	"/>
	
		<linearGradient id="SVGID_2_" gradientUnits="userSpaceOnUse" x1="1580.5328" y1="-113.5325" x2="696.961" y2="858.9817" gradientTransform="matrix(1 0 0 -1 0 1870)">
		<stop  offset="0" style="stop-color:#FFFFFF"/>
		<stop  offset="1" style="stop-color:#000000"/>
	</linearGradient>
	<polygon class="st5" points="1774.9,1568 1403.5,1202.5 461.4,1381.2 970.3,1777.9 1775.4,1777.9 	"/>
	<g>
		<path class="st6" d="M972.5,474.2c-3.2-9.6-13.6-14.9-23.2-11.7l-221.6,72.8c-9.6,3.2-14.9,13.6-11.7,23.2l4.6,14l256.6-84.3
			L972.5,474.2z"/>
		<polygon class="st7" points="994.2,540.4 985.3,513.3 902.9,540.4 		"/>
		<path class="st6" d="M728.7,597.6l31.6,96.2c3.2,9.6,13.6,14.9,23.2,11.7l26-8.5V571L728.7,597.6z"/>
		<path d="M809.5,569.9c0-16.3,13.3-29.6,29.6-29.6h63.8l82.4-27.1l-8.3-25.1l-256.6,84.3l8.3,25.1l80.8-26.5L809.5,569.9
			L809.5,569.9z"/>
		<path class="st8" d="M1058.9,552.6H839.1c-9.5,0-17.4,7.8-17.4,17.4v134.1c0,9.5,7.8,17.3,17.4,17.3h219.8
			c9.5,0,17.4-7.8,17.4-17.3V569.9C1076.2,560.4,1068.4,552.6,1058.9,552.6z M892.4,588.2v32.4c0,2.3-1.6,4.2-3.5,4.2h-44.9
			c-2,0-3.5-1.9-3.5-4.2v-32.4c0-2.3,1.6-4.2,3.5-4.2h44.9C890.8,584,892.4,585.9,892.4,588.2z M1042.3,705.6
			c-5.6,0-10.6-2.4-14.1-6.1c-3.5,3.8-8.6,6.1-14.1,6.1c-10.7,0-19.4-8.7-19.4-19.4s8.7-19.4,19.4-19.4c5.6,0,10.6,2.4,14.1,6.1
			c3.5-3.8,8.6-6.1,14.1-6.1c10.7,0,19.4,8.7,19.4,19.4S1053,705.6,1042.3,705.6z"/>
		<path class="st9" d="M840.3,588.2v32.4c0,2.3,1.6,4.2,3.5,4.2h44.9c1.9,0,3.5-1.9,3.5-4.2v-32.4c0-2.3-1.6-4.2-3.5-4.2h-44.9
			C841.9,584,840.3,585.9,840.3,588.2z"/>
		<path class="st10" d="M1042.3,666.8c-5.6,0-10.6,2.4-14.1,6.1c-3.5-3.8-8.6-6.1-14.1-6.1c-10.7,0-19.4,8.7-19.4,19.4
			c0,10.7,8.7,19.4,19.4,19.4c5.6,0,10.6-2.4,14.1-6.1c3.5,3.8,8.6,6.1,14.1,6.1c10.7,0,19.4-8.7,19.4-19.4S1053,666.8,1042.3,666.8
			z"/>
	</g>
	<g>
		<path class="st0" d="M903,846.7c-1.9,0-3.8,0.7-5.2,2.2c-2.9,2.9-2.9,7.5,0,10.4l29.5,29.5c0.3,0.3,0.7,0.7,1.1,0.9
			c0.2,0.1,0.4,0.2,0.6,0.3c0.2,0.1,0.4,0.3,0.7,0.4c0.2,0.1,0.5,0.2,0.8,0.2c0.2,0.1,0.4,0.1,0.6,0.2c1,0.2,1.9,0.2,2.9,0
			c0.2,0,0.4-0.1,0.6-0.2c0.3-0.1,0.5-0.1,0.8-0.2c0.2-0.1,0.5-0.2,0.7-0.4c0.2-0.1,0.4-0.2,0.6-0.3c0.4-0.3,0.8-0.6,1.1-0.9
			l29.5-29.5c2.9-2.9,2.9-7.5,0-10.4c-1.4-1.4-3.3-2.2-5.2-2.2c-1.9,0-3.8,0.7-5.2,2.2l-16.9,16.9v-67c0-4.1-3.3-7.4-7.4-7.4
			c-4.1,0-7.4,3.3-7.4,7.4v67l-16.9-16.9C906.7,847.4,904.8,846.7,903,846.7z"/>
		<path class="st0" d="M1190.4,930.3c-1.9,0-3.8,0.7-5.2,2.2c-2.9,2.9-2.9,7.5,0,10.4l29.5,29.5c0.3,0.3,0.7,0.7,1.1,0.9
			c0.2,0.1,0.4,0.2,0.6,0.3c0.2,0.1,0.4,0.3,0.7,0.4c0.2,0.1,0.5,0.2,0.8,0.2c0.2,0.1,0.4,0.1,0.6,0.2c1,0.2,1.9,0.2,2.9,0
			c0.2,0,0.4-0.1,0.6-0.2c0.3-0.1,0.5-0.1,0.8-0.2c0.2-0.1,0.5-0.2,0.7-0.4c0.2-0.1,0.4-0.2,0.6-0.3c0.4-0.3,0.8-0.6,1.1-0.9
			l29.5-29.5c2.9-2.9,2.9-7.5,0-10.4c-1.4-1.4-3.3-2.2-5.2-2.2c-1.9,0-3.8,0.7-5.2,2.2l-16.9,16.9v-67c0-4.1-3.3-7.4-7.4-7.4
			s-7.4,3.3-7.4,7.4v67l-16.9-16.9C1194.2,931,1192.3,930.3,1190.4,930.3z"/>
		<path class="st0" d="M615.5,930.3c-1.9,0-3.8,0.7-5.2,2.2c-2.9,2.9-2.9,7.5,0,10.4l29.5,29.5c0.3,0.3,0.7,0.7,1.1,0.9
			c0.2,0.1,0.4,0.2,0.6,0.3c0.2,0.1,0.4,0.3,0.7,0.4c0.2,0.1,0.5,0.2,0.8,0.2c0.2,0.1,0.4,0.1,0.6,0.2c1,0.2,1.9,0.2,2.9,0
			c0.2,0,0.4-0.1,0.6-0.2c0.3-0.1,0.5-0.1,0.8-0.2c0.2-0.1,0.5-0.2,0.7-0.4c0.2-0.1,0.4-0.2,0.6-0.3c0.4-0.3,0.8-0.6,1.1-0.9
			l29.5-29.5c2.9-2.9,2.9-7.5,0-10.4c-1.4-1.4-3.3-2.2-5.2-2.2c-1.9,0-3.8,0.7-5.2,2.2l-16.9,16.9v-67c0-4.1-3.3-7.4-7.4-7.4
			c-4.1,0-7.4,3.3-7.4,7.4v67l-16.9-16.9C619.3,931,617.4,930.3,615.5,930.3z"/>
	</g>
	<rect x="1012.3" y="1147.5" class="st7" width="103.8" height="147.4"/>
	<rect x="1219.9" y="1147.5" class="st0" width="103.8" height="147.4"/>
	<rect x="541.2" y="1146.4" class="st0" width="103.8" height="147.4"/>
	<rect x="748.8" y="1146.4" class="st11" width="103.8" height="147.4"/>
	<rect x="776.7" y="970.1" class="st0" width="103.8" height="147.4"/>
	<rect x="984.4" y="970.1" class="st0" width="103.8" height="147.4"/>
	<rect x="696.9" y="1026.3" class="st0" width="471" height="178.7"/>
	<rect x="696.9" y="1180.8" class="st12" width="471" height="24.2"/>
	<rect x="1219.9" y="1179.8" class="st12" width="103.8" height="24.2"/>
	<rect x="541.2" y="1179.8" class="st12" width="103.8" height="24.2"/>
	<circle class="st0" cx="932.5" cy="1115.6" r="12.3"/>
	<rect x="932.5" y="1203.6" class="st11" width="471" height="178.7"/>
	<rect x="461.4" y="1202.5" class="st0" width="471" height="178.7"/>
	<g>
		<circle class="st10" cx="676.9" cy="1300.9" r="12.3"/>
		<circle class="st10" cx="716.9" cy="1300.9" r="12.3"/>
	</g>
	<g>
		<circle class="st10" cx="1127.2" cy="1300.9" r="12.3"/>
		<circle class="st10" cx="1208.8" cy="1300.9" r="12.3"/>
		<circle class="st10" cx="1168" cy="1300.9" r="12.3"/>
	</g>
</g>
</svg>
