<?xml version="1.0" encoding="utf-8"?>
<!-- Generator: Adobe Illustrator 22.0.1, SVG Export Plug-In . SVG Version: 6.00 Build 0)  -->
<svg version="1.1" id="Layer_1" xmlns="http://www.w3.org/2000/svg" xmlns:xlink="http://www.w3.org/1999/xlink" x="0px" y="0px"
	 viewBox="0 0 1864.9 1870.9" style="enable-background:new 0 0 1864.9 1870.9;" xml:space="preserve">
<style type="text/css">
	.st0{fill:#FFFFFF;}
	.st1{display:none;}
	.st2{display:inline;opacity:7.000000e-02;}
	.st3{fill:none;stroke:#FFFFFF;stroke-width:15;stroke-miterlimit:10;}
	.st4{fill:url(#SVGID_1_);}
	.st5{opacity:0.22;fill:url(#SVGID_2_);}
	.st6{fill:#CECED7;}
	.st7{fill:#E6E7E9;}
	.st8{fill:#D1D2D4;}
	.st9{fill:#F3EDEC;}
	.st10{fill:#DBD8D9;}
	.st11{fill:#EC534C;}
</style>
<rect x="0.7" y="6.7" class="st0" width="1860.2" height="1860.2"/>
<g id="Layer_4" class="st1">
	<g class="st2">
		<line class="st3" x1="90" y1="523.8" x2="1776.9" y2="523.8"/>
		<line class="st3" x1="90" y1="954.6" x2="1776.9" y2="954.6"/>
		<line class="st3" x1="90" y1="132.2" x2="1776.9" y2="132.2"/>
		<line class="st3" x1="90" y1="1385.4" x2="1776.9" y2="1385.4"/>
		<line class="st3" x1="90" y1="563" x2="1776.9" y2="563"/>
		<line class="st3" x1="90" y1="993.8" x2="1776.9" y2="993.8"/>
		<line class="st3" x1="90" y1="171.3" x2="1776.9" y2="171.3"/>
		<line class="st3" x1="90" y1="1424.5" x2="1776.9" y2="1424.5"/>
		<line class="st3" x1="90" y1="602.1" x2="1776.9" y2="602.1"/>
		<line class="st3" x1="90" y1="1032.9" x2="1776.9" y2="1032.9"/>
		<line class="st3" x1="90" y1="210.5" x2="1776.9" y2="210.5"/>
		<line class="st3" x1="90" y1="1463.7" x2="1776.9" y2="1463.7"/>
		<line class="st3" x1="90" y1="641.3" x2="1776.9" y2="641.3"/>
		<line class="st3" x1="90" y1="1072.1" x2="1776.9" y2="1072.1"/>
		<line class="st3" x1="90" y1="249.7" x2="1776.9" y2="249.7"/>
		<line class="st3" x1="90" y1="1502.9" x2="1776.9" y2="1502.9"/>
		<line class="st3" x1="90" y1="680.5" x2="1776.9" y2="680.5"/>
		<line class="st3" x1="90" y1="1111.2" x2="1776.9" y2="1111.2"/>
		<line class="st3" x1="90" y1="288.8" x2="1776.9" y2="288.8"/>
		<line class="st3" x1="90" y1="1542" x2="1776.9" y2="1542"/>
		<line class="st3" x1="90" y1="719.6" x2="1776.9" y2="719.6"/>
		<line class="st3" x1="90" y1="1150.4" x2="1776.9" y2="1150.4"/>
		<line class="st3" x1="90" y1="328" x2="1776.9" y2="328"/>
		<line class="st3" x1="90" y1="1581.2" x2="1776.9" y2="1581.2"/>
		<line class="st3" x1="90" y1="758.8" x2="1776.9" y2="758.8"/>
		<line class="st3" x1="90" y1="1189.6" x2="1776.9" y2="1189.6"/>
		<line class="st3" x1="90" y1="367.1" x2="1776.9" y2="367.1"/>
		<line class="st3" x1="90" y1="1620.4" x2="1776.9" y2="1620.4"/>
		<line class="st3" x1="90" y1="797.9" x2="1776.9" y2="797.9"/>
		<line class="st3" x1="90" y1="1228.7" x2="1776.9" y2="1228.7"/>
		<line class="st3" x1="90" y1="406.3" x2="1776.9" y2="406.3"/>
		<line class="st3" x1="90" y1="1659.5" x2="1776.9" y2="1659.5"/>
		<line class="st3" x1="90" y1="837.1" x2="1776.9" y2="837.1"/>
		<line class="st3" x1="90" y1="1267.9" x2="1776.9" y2="1267.9"/>
		<line class="st3" x1="90" y1="445.5" x2="1776.9" y2="445.5"/>
		<line class="st3" x1="90" y1="1698.7" x2="1776.9" y2="1698.7"/>
		<line class="st3" x1="90" y1="876.3" x2="1776.9" y2="876.3"/>
		<line class="st3" x1="90" y1="1307.1" x2="1776.9" y2="1307.1"/>
		<line class="st3" x1="90" y1="484.6" x2="1776.9" y2="484.6"/>
		<line class="st3" x1="90" y1="1737.8" x2="1776.9" y2="1737.8"/>
		<line class="st3" x1="90" y1="915.4" x2="1776.9" y2="915.4"/>
		<line class="st3" x1="90" y1="1346.2" x2="1776.9" y2="1346.2"/>
		<line class="st3" x1="90" y1="93" x2="1776.9" y2="93"/>
		<line class="st3" x1="90" y1="1777" x2="1776.9" y2="1777"/>
	</g>
</g>
<g id="Layer_4_1_" class="st1">
	<g class="st2">
		<line class="st3" x1="1854.7" y1="531.3" x2="3541.6" y2="531.3"/>
		<line class="st3" x1="1854.7" y1="962.1" x2="3541.6" y2="962.1"/>
		<line class="st3" x1="1854.7" y1="139.7" x2="3541.6" y2="139.7"/>
		<line class="st3" x1="1854.7" y1="1392.9" x2="3541.6" y2="1392.9"/>
		<line class="st3" x1="1854.7" y1="570.5" x2="3541.6" y2="570.5"/>
		<line class="st3" x1="1854.7" y1="1001.3" x2="3541.6" y2="1001.3"/>
		<line class="st3" x1="1854.7" y1="178.8" x2="3541.6" y2="178.8"/>
		<line class="st3" x1="1854.7" y1="1432" x2="3541.6" y2="1432"/>
		<line class="st3" x1="1854.7" y1="609.6" x2="3541.6" y2="609.6"/>
		<line class="st3" x1="1854.7" y1="1040.4" x2="3541.6" y2="1040.4"/>
		<line class="st3" x1="1854.7" y1="218" x2="3541.6" y2="218"/>
		<line class="st3" x1="1854.7" y1="1471.2" x2="3541.6" y2="1471.2"/>
		<line class="st3" x1="1854.7" y1="648.8" x2="3541.6" y2="648.8"/>
		<line class="st3" x1="1854.7" y1="1079.6" x2="3541.6" y2="1079.6"/>
		<line class="st3" x1="1854.7" y1="257.2" x2="3541.6" y2="257.2"/>
		<line class="st3" x1="1854.7" y1="1510.4" x2="3541.6" y2="1510.4"/>
		<line class="st3" x1="1854.7" y1="688" x2="3541.6" y2="688"/>
		<line class="st3" x1="1854.7" y1="1118.7" x2="3541.6" y2="1118.7"/>
		<line class="st3" x1="1854.7" y1="296.3" x2="3541.6" y2="296.3"/>
		<line class="st3" x1="1854.7" y1="1549.5" x2="3541.6" y2="1549.5"/>
		<line class="st3" x1="1854.7" y1="727.1" x2="3541.6" y2="727.1"/>
		<line class="st3" x1="1854.7" y1="1157.9" x2="3541.6" y2="1157.9"/>
		<line class="st3" x1="1854.7" y1="335.5" x2="3541.6" y2="335.5"/>
		<line class="st3" x1="1854.7" y1="1588.7" x2="3541.6" y2="1588.7"/>
		<line class="st3" x1="1854.7" y1="766.3" x2="3541.6" y2="766.3"/>
		<line class="st3" x1="1854.7" y1="1197.1" x2="3541.6" y2="1197.1"/>
		<line class="st3" x1="1854.7" y1="374.6" x2="3541.6" y2="374.6"/>
		<line class="st3" x1="1854.7" y1="1627.9" x2="3541.6" y2="1627.9"/>
		<line class="st3" x1="1854.7" y1="805.4" x2="3541.6" y2="805.4"/>
		<line class="st3" x1="1854.7" y1="1236.2" x2="3541.6" y2="1236.2"/>
		<line class="st3" x1="1854.7" y1="413.8" x2="3541.6" y2="413.8"/>
		<line class="st3" x1="1854.7" y1="1667" x2="3541.6" y2="1667"/>
		<line class="st3" x1="1854.7" y1="844.6" x2="3541.6" y2="844.6"/>
		<line class="st3" x1="1854.7" y1="1275.4" x2="3541.6" y2="1275.4"/>
		<line class="st3" x1="1854.7" y1="453" x2="3541.6" y2="453"/>
		<line class="st3" x1="1854.7" y1="1706.2" x2="3541.6" y2="1706.2"/>
		<line class="st3" x1="1854.7" y1="883.8" x2="3541.6" y2="883.8"/>
		<line class="st3" x1="1854.7" y1="1314.6" x2="3541.6" y2="1314.6"/>
		<line class="st3" x1="1854.7" y1="492.1" x2="3541.6" y2="492.1"/>
		<line class="st3" x1="1854.7" y1="1745.3" x2="3541.6" y2="1745.3"/>
		<line class="st3" x1="1854.7" y1="922.9" x2="3541.6" y2="922.9"/>
		<line class="st3" x1="1854.7" y1="1353.7" x2="3541.6" y2="1353.7"/>
		<line class="st3" x1="1854.7" y1="100.5" x2="3541.6" y2="100.5"/>
		<line class="st3" x1="1854.7" y1="1784.5" x2="3541.6" y2="1784.5"/>
	</g>
</g>
<g>
	
		<linearGradient id="SVGID_1_" gradientUnits="userSpaceOnUse" x1="89.5395" y1="934.55" x2="1775.3605" y2="934.55" gradientTransform="matrix(1 0 0 -1 0 1870)">
		<stop  offset="0" style="stop-color:#4D98F7"/>
		<stop  offset="1" style="stop-color:#C94DF7"/>
	</linearGradient>
	<polygon class="st4" points="1775.4,1777.9 1775.4,93 89.5,93 89.5,1777.9 	"/>
	
		<linearGradient id="SVGID_2_" gradientUnits="userSpaceOnUse" x1="1690.1635" y1="183.6362" x2="824.3098" y2="1017.4099" gradientTransform="matrix(1 0 0 -1 0 1870)">
		<stop  offset="0" style="stop-color:#FFFFFF"/>
		<stop  offset="1" style="stop-color:#000000"/>
	</linearGradient>
	<polygon class="st5" points="1775.4,1067.9 1215.5,466.5 1203.8,1360.6 573.3,1373.7 1121.2,1777.9 1775.4,1777.9 	"/>
	<g>
		<path class="st6" d="M560.9,1345.8c0,28.1,23,51.1,51.1,51.1h565.7c28.1,0,51.1-23,51.1-51.1V505.5c0-28.1-23-51.1-51.1-51.1H612
			c-28.1,0-51.1,23-51.1,51.1L560.9,1345.8L560.9,1345.8z"/>
		<rect x="604.4" y="498" class="st0" width="580.8" height="855.4"/>
		<g>
			<polygon class="st7" points="719.2,454.9 719.2,510.5 1070.4,510.5 1070.4,454.9 894.8,454.9 			"/>
			<rect x="719.2" y="510.5" class="st8" width="351.2" height="28.5"/>
			<path class="st9" d="M1030.7,409.9H961c-6.2,0-6.1-9.8-6.1-15c0-33.2-26.9-60-60-60c-33.2,0-60,26.9-60,60c0,5.2-0.3,15-6.1,15
				H759c-21.8,0-39.7,17.9-39.7,39.7v5.3h175.6h175.6v-5.3C1070.4,427.8,1052.6,409.9,1030.7,409.9z M894.8,436.9
				c-17.9,0-33.2-11.2-39.2-27c-1.8-4.7-2.8-9.7-2.8-15c0-23.2,18.8-42,42-42s42,18.8,42,42c0,5.3-1,10.3-2.8,15
				C928,425.7,912.7,436.9,894.8,436.9z"/>
			<path class="st10" d="M894.8,352.9c-23.2,0-42,18.8-42,42c0,5.3,1,10.3,2.8,15c6,15.8,21.3,27,39.2,27c17.9,0,33.2-11.2,39.2-27
				c1.8-4.7,2.8-9.7,2.8-15C936.8,371.7,918,352.9,894.8,352.9z M894.8,417.4c-6.7,0-12.7-2.9-16.8-7.5c-3.6-4-5.7-9.2-5.7-15
				c0-12.4,10.1-22.5,22.5-22.5c12.4,0,22.5,10.1,22.5,22.5c0,5.8-2.2,11-5.7,15C907.5,414.5,901.5,417.4,894.8,417.4z"/>
		</g>
	</g>
	<g>
		<polygon class="st11" points="976.6,1112.2 1028.4,1112.2 1028.4,932.7 976.6,968.3 		"/>
		<polygon class="st11" points="914.9,1010.7 914.9,1112.2 966.8,1112.2 966.8,975 		"/>
		<polygon class="st11" points="904.3,1017.9 894.6,1024.6 888,1014.9 861.3,976 853.2,981.5 853.2,1112.2 905.1,1112.2 
			905.1,1017.4 		"/>
		<polygon class="st11" points="733.9,1063.6 729.9,1066.2 729.9,1112.2 781.8,1112.2 781.8,1030.6 		"/>
		<polygon class="st11" points="791.6,1023.9 791.6,1112.2 843.5,1112.2 843.5,988.2 		"/>
		<polygon class="st11" points="1038.1,888.7 902.6,981.7 869.2,933 729.1,1029.5 729.1,1052.6 779.3,1018.1 781.8,1016.3 
			791.6,1009.6 830.8,982.7 853.2,967.2 864.3,959.6 897.7,1008.3 914.9,996.4 965.3,961.8 966.8,960.8 976.6,954.1 1013,929.1 
			1028.4,918.5 1028.4,918.5 1048.9,904.4 1058.8,918.7 1095.2,861.1 1028.4,874.7 		"/>
		<line class="st11" x1="966.8" y1="960.8" x2="965.3" y2="961.8"/>
		<polygon class="st11" points="717.3,1069.3 717.3,1023.3 717.3,791 694.5,791 694.5,1146.8 1050.3,1146.8 1050.3,1123.9 
			717.3,1123.9 		"/>
	</g>
</g>
</svg>
