<?xml version="1.0" encoding="utf-8"?>
<!-- Generator: Adobe Illustrator 22.0.1, SVG Export Plug-In . SVG Version: 6.00 Build 0)  -->
<svg version="1.1" id="Layer_1" xmlns="http://www.w3.org/2000/svg" xmlns:xlink="http://www.w3.org/1999/xlink" x="0px" y="0px"
	 viewBox="0 0 1864.9 1870.9" style="enable-background:new 0 0 1864.9 1870.9;" xml:space="preserve">
<style type="text/css">
	.st0{fill:#FFFFFF;}
	.st1{fill:url(#SVGID_1_);}
	.st2{opacity:0.22;fill:url(#SVGID_2_);}
	.st3{display:none;}
	.st4{display:inline;opacity:7.000000e-02;}
	.st5{fill:none;stroke:#FFFFFF;stroke-width:15;stroke-miterlimit:10;}
	.st6{fill:#CECED7;}
	.st7{fill:#EC534C;}
	.st8{fill:#F1F1F3;}
	.st9{fill:#E9EAEE;}
</style>
<rect x="0.7" y="6.7" class="st0" width="1860.2" height="1860.2"/>
<linearGradient id="SVGID_1_" gradientUnits="userSpaceOnUse" x1="90.009" y1="935.0093" x2="1774.9191" y2="935.0093" gradientTransform="matrix(1 0 0 -1 0 1870.0186)">
	<stop  offset="0" style="stop-color:#4D98F7"/>
	<stop  offset="1" style="stop-color:#C94DF7"/>
</linearGradient>
<polygon class="st1" points="1774.9,1777 1774.9,93 90,93 90,1777 "/>
<linearGradient id="SVGID_2_" gradientUnits="userSpaceOnUse" x1="1536.2478" y1="1964.0309" x2="852.2934" y2="730.7826">
	<stop  offset="0" style="stop-color:#FFFFFF"/>
	<stop  offset="1" style="stop-color:#000000"/>
</linearGradient>
<polygon class="st2" points="1774.9,985.1 1407.9,609.8 928.1,1213.1 364.7,1260.9 884.5,1777 1774.9,1777 "/>
<g id="Layer_4" class="st3">
	<g class="st4">
		<line class="st5" x1="90" y1="523.8" x2="1776.9" y2="523.8"/>
		<line class="st5" x1="90" y1="954.6" x2="1776.9" y2="954.6"/>
		<line class="st5" x1="90" y1="132.2" x2="1776.9" y2="132.2"/>
		<line class="st5" x1="90" y1="1385.4" x2="1776.9" y2="1385.4"/>
		<line class="st5" x1="90" y1="563" x2="1776.9" y2="563"/>
		<line class="st5" x1="90" y1="993.8" x2="1776.9" y2="993.8"/>
		<line class="st5" x1="90" y1="171.3" x2="1776.9" y2="171.3"/>
		<line class="st5" x1="90" y1="1424.5" x2="1776.9" y2="1424.5"/>
		<line class="st5" x1="90" y1="602.1" x2="1776.9" y2="602.1"/>
		<line class="st5" x1="90" y1="1032.9" x2="1776.9" y2="1032.9"/>
		<line class="st5" x1="90" y1="210.5" x2="1776.9" y2="210.5"/>
		<line class="st5" x1="90" y1="1463.7" x2="1776.9" y2="1463.7"/>
		<line class="st5" x1="90" y1="641.3" x2="1776.9" y2="641.3"/>
		<line class="st5" x1="90" y1="1072.1" x2="1776.9" y2="1072.1"/>
		<line class="st5" x1="90" y1="249.7" x2="1776.9" y2="249.7"/>
		<line class="st5" x1="90" y1="1502.9" x2="1776.9" y2="1502.9"/>
		<line class="st5" x1="90" y1="680.5" x2="1776.9" y2="680.5"/>
		<line class="st5" x1="90" y1="1111.2" x2="1776.9" y2="1111.2"/>
		<line class="st5" x1="90" y1="288.8" x2="1776.9" y2="288.8"/>
		<line class="st5" x1="90" y1="1542" x2="1776.9" y2="1542"/>
		<line class="st5" x1="90" y1="719.6" x2="1776.9" y2="719.6"/>
		<line class="st5" x1="90" y1="1150.4" x2="1776.9" y2="1150.4"/>
		<line class="st5" x1="90" y1="328" x2="1776.9" y2="328"/>
		<line class="st5" x1="90" y1="1581.2" x2="1776.9" y2="1581.2"/>
		<line class="st5" x1="90" y1="758.8" x2="1776.9" y2="758.8"/>
		<line class="st5" x1="90" y1="1189.6" x2="1776.9" y2="1189.6"/>
		<line class="st5" x1="90" y1="367.1" x2="1776.9" y2="367.1"/>
		<line class="st5" x1="90" y1="1620.4" x2="1776.9" y2="1620.4"/>
		<line class="st5" x1="90" y1="797.9" x2="1776.9" y2="797.9"/>
		<line class="st5" x1="90" y1="1228.7" x2="1776.9" y2="1228.7"/>
		<line class="st5" x1="90" y1="406.3" x2="1776.9" y2="406.3"/>
		<line class="st5" x1="90" y1="1659.5" x2="1776.9" y2="1659.5"/>
		<line class="st5" x1="90" y1="837.1" x2="1776.9" y2="837.1"/>
		<line class="st5" x1="90" y1="1267.9" x2="1776.9" y2="1267.9"/>
		<line class="st5" x1="90" y1="445.5" x2="1776.9" y2="445.5"/>
		<line class="st5" x1="90" y1="1698.7" x2="1776.9" y2="1698.7"/>
		<line class="st5" x1="90" y1="876.3" x2="1776.9" y2="876.3"/>
		<line class="st5" x1="90" y1="1307.1" x2="1776.9" y2="1307.1"/>
		<line class="st5" x1="90" y1="484.6" x2="1776.9" y2="484.6"/>
		<line class="st5" x1="90" y1="1737.8" x2="1776.9" y2="1737.8"/>
		<line class="st5" x1="90" y1="915.4" x2="1776.9" y2="915.4"/>
		<line class="st5" x1="90" y1="1346.2" x2="1776.9" y2="1346.2"/>
		<line class="st5" x1="90" y1="93" x2="1776.9" y2="93"/>
		<line class="st5" x1="90" y1="1777" x2="1776.9" y2="1777"/>
	</g>
</g>
<g>
	<path class="st6" d="M1411.9,1213c0,15.7-12.8,28.5-28.5,28.5H493.4c-15.7,0-28.5-12.8-28.5-28.5V632.7c0-15.7,12.8-28.5,28.5-28.5
		h889.9c15.7,0,28.5,12.8,28.5,28.5V1213z"/>
	<rect x="493.8" y="632.6" class="st0" width="889.1" height="580.4"/>
</g>
<g>
	<path class="st7" d="M938.4,820.7c-29.3,0-53.2,23.9-53.2,53.2c0,29.3,23.9,53.2,53.2,53.2c29.3,0,53.2-23.9,53.2-53.2
		C991.6,844.6,967.7,820.7,938.4,820.7z M976.3,873.9c0,20.9-17,37.9-37.9,37.9c-20.9,0-37.9-17-37.9-37.9s17-37.9,37.9-37.9
		C959.3,836,976.3,853,976.3,873.9z"/>
	<path class="st7" d="M1054.4,855.6l-24.8-4.1c-1.8-7.4-4.4-14.4-7.9-21l15.9-19.7c3.4-4.2,3.2-10.1-0.3-14.2l-9.9-11.1
		c-3.6-4-9.5-4.9-14-2l-21.2,13.3c-9.3-6.5-19.9-11.3-31.3-14.1l-4.2-24.9c-0.9-5.3-5.4-9.2-10.8-9.2h-14.9c-5.4,0-9.9,3.9-10.8,9.2
		l-4.2,25c-9.4,2.3-18.3,6-26.3,10.9l-20.2-14.4c-4.3-3.1-10.3-2.6-14.1,1.2L845,791c-3.8,3.8-4.3,9.8-1.2,14.1l14.4,20.2
		c-4.9,8-8.5,16.8-10.9,26.1l-25.1,4.2c-5.3,0.9-9.2,5.4-9.2,10.8v14.9c0,5.4,3.9,9.9,9.2,10.8l25.1,4.2c1.9,7.7,4.6,15,8.3,21.8
		l-15.8,19.6c-3.4,4.2-3.2,10.2,0.3,14.2l9.9,11.1c3.6,4,9.5,4.9,14,2l21.5-13.5c9.1,6.2,19.4,10.8,30.5,13.5l4.2,24.9
		c0.9,5.3,5.4,9.2,10.8,9.2h14.9c5.4,0,9.9-3.9,10.8-9.2l4.2-24.9c9.3-2.3,18-5.9,26-10.8l21,15c4.3,3.1,10.3,2.6,14.1-1.2
		l10.5-10.5c3.8-3.8,4.3-9.8,1.2-14.1l-15-21c4.9-8,8.6-16.8,10.9-26.2l24.8-4.1c5.3-0.9,9.2-5.4,9.2-10.8v-14.9
		C1063.6,861.1,1059.7,856.5,1054.4,855.6z M938.4,948.3c-41.1,0-74.4-33.4-74.4-74.5c0-41.1,33.4-74.4,74.4-74.4
		c41.1,0,74.4,33.4,74.4,74.4C1012.8,914.9,979.4,948.3,938.4,948.3z"/>
</g>
<g>
	<path class="st7" d="M634.3,1086.4c-5.6,0-10.1,4.5-10.1,10.1s4.5,10.1,10.1,10.1h385.8v-20.1L634.3,1086.4L634.3,1086.4z"/>
	<path class="st8" d="M1242.4,1086.4h-222.3v20.1h222.3c5.6,0,10.1-4.5,10.1-10.1S1248,1086.4,1242.4,1086.4z"/>
</g>
<rect x="363.8" y="1239.1" class="st9" width="1149.1" height="21.8"/>
<path class="st6" d="M363.8,1260.9c7.6,3.9,38.7,14.3,52.4,14.3h1044.2c13.7,0,44.9-10.3,52.4-14.3H363.8z"/>
<g id="Layer_4_1_" class="st3">
	<g class="st4">
		<line class="st5" x1="1854.7" y1="531.3" x2="3541.6" y2="531.3"/>
		<line class="st5" x1="1854.7" y1="962.1" x2="3541.6" y2="962.1"/>
		<line class="st5" x1="1854.7" y1="139.7" x2="3541.6" y2="139.7"/>
		<line class="st5" x1="1854.7" y1="1392.9" x2="3541.6" y2="1392.9"/>
		<line class="st5" x1="1854.7" y1="570.5" x2="3541.6" y2="570.5"/>
		<line class="st5" x1="1854.7" y1="1001.3" x2="3541.6" y2="1001.3"/>
		<line class="st5" x1="1854.7" y1="178.8" x2="3541.6" y2="178.8"/>
		<line class="st5" x1="1854.7" y1="1432" x2="3541.6" y2="1432"/>
		<line class="st5" x1="1854.7" y1="609.6" x2="3541.6" y2="609.6"/>
		<line class="st5" x1="1854.7" y1="1040.4" x2="3541.6" y2="1040.4"/>
		<line class="st5" x1="1854.7" y1="218" x2="3541.6" y2="218"/>
		<line class="st5" x1="1854.7" y1="1471.2" x2="3541.6" y2="1471.2"/>
		<line class="st5" x1="1854.7" y1="648.8" x2="3541.6" y2="648.8"/>
		<line class="st5" x1="1854.7" y1="1079.6" x2="3541.6" y2="1079.6"/>
		<line class="st5" x1="1854.7" y1="257.2" x2="3541.6" y2="257.2"/>
		<line class="st5" x1="1854.7" y1="1510.4" x2="3541.6" y2="1510.4"/>
		<line class="st5" x1="1854.7" y1="688" x2="3541.6" y2="688"/>
		<line class="st5" x1="1854.7" y1="1118.7" x2="3541.6" y2="1118.7"/>
		<line class="st5" x1="1854.7" y1="296.3" x2="3541.6" y2="296.3"/>
		<line class="st5" x1="1854.7" y1="1549.5" x2="3541.6" y2="1549.5"/>
		<line class="st5" x1="1854.7" y1="727.1" x2="3541.6" y2="727.1"/>
		<line class="st5" x1="1854.7" y1="1157.9" x2="3541.6" y2="1157.9"/>
		<line class="st5" x1="1854.7" y1="335.5" x2="3541.6" y2="335.5"/>
		<line class="st5" x1="1854.7" y1="1588.7" x2="3541.6" y2="1588.7"/>
		<line class="st5" x1="1854.7" y1="766.3" x2="3541.6" y2="766.3"/>
		<line class="st5" x1="1854.7" y1="1197.1" x2="3541.6" y2="1197.1"/>
		<line class="st5" x1="1854.7" y1="374.6" x2="3541.6" y2="374.6"/>
		<line class="st5" x1="1854.7" y1="1627.9" x2="3541.6" y2="1627.9"/>
		<line class="st5" x1="1854.7" y1="805.4" x2="3541.6" y2="805.4"/>
		<line class="st5" x1="1854.7" y1="1236.2" x2="3541.6" y2="1236.2"/>
		<line class="st5" x1="1854.7" y1="413.8" x2="3541.6" y2="413.8"/>
		<line class="st5" x1="1854.7" y1="1667" x2="3541.6" y2="1667"/>
		<line class="st5" x1="1854.7" y1="844.6" x2="3541.6" y2="844.6"/>
		<line class="st5" x1="1854.7" y1="1275.4" x2="3541.6" y2="1275.4"/>
		<line class="st5" x1="1854.7" y1="453" x2="3541.6" y2="453"/>
		<line class="st5" x1="1854.7" y1="1706.2" x2="3541.6" y2="1706.2"/>
		<line class="st5" x1="1854.7" y1="883.8" x2="3541.6" y2="883.8"/>
		<line class="st5" x1="1854.7" y1="1314.6" x2="3541.6" y2="1314.6"/>
		<line class="st5" x1="1854.7" y1="492.1" x2="3541.6" y2="492.1"/>
		<line class="st5" x1="1854.7" y1="1745.3" x2="3541.6" y2="1745.3"/>
		<line class="st5" x1="1854.7" y1="922.9" x2="3541.6" y2="922.9"/>
		<line class="st5" x1="1854.7" y1="1353.7" x2="3541.6" y2="1353.7"/>
		<line class="st5" x1="1854.7" y1="100.5" x2="3541.6" y2="100.5"/>
		<line class="st5" x1="1854.7" y1="1784.5" x2="3541.6" y2="1784.5"/>
	</g>
</g>
</svg>
