<?xml version="1.0" encoding="utf-8"?>
<!-- Generator: Adobe Illustrator 22.0.1, SVG Export Plug-In . SVG Version: 6.00 Build 0)  -->
<svg version="1.1" id="Layer_1" xmlns="http://www.w3.org/2000/svg" xmlns:xlink="http://www.w3.org/1999/xlink" x="0px" y="0px"
	 viewBox="0 0 1864.9 1870.9" style="enable-background:new 0 0 1864.9 1870.9;" xml:space="preserve">
<style type="text/css">
	.st0{fill:#FFFFFF;}
	.st1{display:none;}
	.st2{display:inline;opacity:7.000000e-02;}
	.st3{fill:none;stroke:#FFFFFF;stroke-width:15;stroke-miterlimit:10;}
	.st4{fill:url(#SVGID_1_);}
	.st5{opacity:0.22;fill:url(#SVGID_2_);}
	.st6{fill:#CE3A3A;}
	.st7{fill:#E6E7E9;}
	.st8{fill:#EC534C;}
</style>
<rect x="0.7" y="6.7" class="st0" width="1860.2" height="1860.2"/>
<g id="Layer_4" class="st1">
	<g class="st2">
		<line class="st3" x1="90" y1="523.8" x2="1776.9" y2="523.8"/>
		<line class="st3" x1="90" y1="954.6" x2="1776.9" y2="954.6"/>
		<line class="st3" x1="90" y1="132.2" x2="1776.9" y2="132.2"/>
		<line class="st3" x1="90" y1="1385.4" x2="1776.9" y2="1385.4"/>
		<line class="st3" x1="90" y1="563" x2="1776.9" y2="563"/>
		<line class="st3" x1="90" y1="993.8" x2="1776.9" y2="993.8"/>
		<line class="st3" x1="90" y1="171.3" x2="1776.9" y2="171.3"/>
		<line class="st3" x1="90" y1="1424.5" x2="1776.9" y2="1424.5"/>
		<line class="st3" x1="90" y1="602.1" x2="1776.9" y2="602.1"/>
		<line class="st3" x1="90" y1="1032.9" x2="1776.9" y2="1032.9"/>
		<line class="st3" x1="90" y1="210.5" x2="1776.9" y2="210.5"/>
		<line class="st3" x1="90" y1="1463.7" x2="1776.9" y2="1463.7"/>
		<line class="st3" x1="90" y1="641.3" x2="1776.9" y2="641.3"/>
		<line class="st3" x1="90" y1="1072.1" x2="1776.9" y2="1072.1"/>
		<line class="st3" x1="90" y1="249.7" x2="1776.9" y2="249.7"/>
		<line class="st3" x1="90" y1="1502.9" x2="1776.9" y2="1502.9"/>
		<line class="st3" x1="90" y1="680.5" x2="1776.9" y2="680.5"/>
		<line class="st3" x1="90" y1="1111.2" x2="1776.9" y2="1111.2"/>
		<line class="st3" x1="90" y1="288.8" x2="1776.9" y2="288.8"/>
		<line class="st3" x1="90" y1="1542" x2="1776.9" y2="1542"/>
		<line class="st3" x1="90" y1="719.6" x2="1776.9" y2="719.6"/>
		<line class="st3" x1="90" y1="1150.4" x2="1776.9" y2="1150.4"/>
		<line class="st3" x1="90" y1="328" x2="1776.9" y2="328"/>
		<line class="st3" x1="90" y1="1581.2" x2="1776.9" y2="1581.2"/>
		<line class="st3" x1="90" y1="758.8" x2="1776.9" y2="758.8"/>
		<line class="st3" x1="90" y1="1189.6" x2="1776.9" y2="1189.6"/>
		<line class="st3" x1="90" y1="367.1" x2="1776.9" y2="367.1"/>
		<line class="st3" x1="90" y1="1620.4" x2="1776.9" y2="1620.4"/>
		<line class="st3" x1="90" y1="797.9" x2="1776.9" y2="797.9"/>
		<line class="st3" x1="90" y1="1228.7" x2="1776.9" y2="1228.7"/>
		<line class="st3" x1="90" y1="406.3" x2="1776.9" y2="406.3"/>
		<line class="st3" x1="90" y1="1659.5" x2="1776.9" y2="1659.5"/>
		<line class="st3" x1="90" y1="837.1" x2="1776.9" y2="837.1"/>
		<line class="st3" x1="90" y1="1267.9" x2="1776.9" y2="1267.9"/>
		<line class="st3" x1="90" y1="445.5" x2="1776.9" y2="445.5"/>
		<line class="st3" x1="90" y1="1698.7" x2="1776.9" y2="1698.7"/>
		<line class="st3" x1="90" y1="876.3" x2="1776.9" y2="876.3"/>
		<line class="st3" x1="90" y1="1307.1" x2="1776.9" y2="1307.1"/>
		<line class="st3" x1="90" y1="484.6" x2="1776.9" y2="484.6"/>
		<line class="st3" x1="90" y1="1737.8" x2="1776.9" y2="1737.8"/>
		<line class="st3" x1="90" y1="915.4" x2="1776.9" y2="915.4"/>
		<line class="st3" x1="90" y1="1346.2" x2="1776.9" y2="1346.2"/>
		<line class="st3" x1="90" y1="93" x2="1776.9" y2="93"/>
		<line class="st3" x1="90" y1="1777" x2="1776.9" y2="1777"/>
	</g>
</g>
<g id="Layer_4_1_" class="st1">
	<g class="st2">
		<line class="st3" x1="1854.7" y1="531.3" x2="3541.6" y2="531.3"/>
		<line class="st3" x1="1854.7" y1="962.1" x2="3541.6" y2="962.1"/>
		<line class="st3" x1="1854.7" y1="139.7" x2="3541.6" y2="139.7"/>
		<line class="st3" x1="1854.7" y1="1392.9" x2="3541.6" y2="1392.9"/>
		<line class="st3" x1="1854.7" y1="570.5" x2="3541.6" y2="570.5"/>
		<line class="st3" x1="1854.7" y1="1001.3" x2="3541.6" y2="1001.3"/>
		<line class="st3" x1="1854.7" y1="178.8" x2="3541.6" y2="178.8"/>
		<line class="st3" x1="1854.7" y1="1432" x2="3541.6" y2="1432"/>
		<line class="st3" x1="1854.7" y1="609.6" x2="3541.6" y2="609.6"/>
		<line class="st3" x1="1854.7" y1="1040.4" x2="3541.6" y2="1040.4"/>
		<line class="st3" x1="1854.7" y1="218" x2="3541.6" y2="218"/>
		<line class="st3" x1="1854.7" y1="1471.2" x2="3541.6" y2="1471.2"/>
		<line class="st3" x1="1854.7" y1="648.8" x2="3541.6" y2="648.8"/>
		<line class="st3" x1="1854.7" y1="1079.6" x2="3541.6" y2="1079.6"/>
		<line class="st3" x1="1854.7" y1="257.2" x2="3541.6" y2="257.2"/>
		<line class="st3" x1="1854.7" y1="1510.4" x2="3541.6" y2="1510.4"/>
		<line class="st3" x1="1854.7" y1="688" x2="3541.6" y2="688"/>
		<line class="st3" x1="1854.7" y1="1118.7" x2="3541.6" y2="1118.7"/>
		<line class="st3" x1="1854.7" y1="296.3" x2="3541.6" y2="296.3"/>
		<line class="st3" x1="1854.7" y1="1549.5" x2="3541.6" y2="1549.5"/>
		<line class="st3" x1="1854.7" y1="727.1" x2="3541.6" y2="727.1"/>
		<line class="st3" x1="1854.7" y1="1157.9" x2="3541.6" y2="1157.9"/>
		<line class="st3" x1="1854.7" y1="335.5" x2="3541.6" y2="335.5"/>
		<line class="st3" x1="1854.7" y1="1588.7" x2="3541.6" y2="1588.7"/>
		<line class="st3" x1="1854.7" y1="766.3" x2="3541.6" y2="766.3"/>
		<line class="st3" x1="1854.7" y1="1197.1" x2="3541.6" y2="1197.1"/>
		<line class="st3" x1="1854.7" y1="374.6" x2="3541.6" y2="374.6"/>
		<line class="st3" x1="1854.7" y1="1627.9" x2="3541.6" y2="1627.9"/>
		<line class="st3" x1="1854.7" y1="805.4" x2="3541.6" y2="805.4"/>
		<line class="st3" x1="1854.7" y1="1236.2" x2="3541.6" y2="1236.2"/>
		<line class="st3" x1="1854.7" y1="413.8" x2="3541.6" y2="413.8"/>
		<line class="st3" x1="1854.7" y1="1667" x2="3541.6" y2="1667"/>
		<line class="st3" x1="1854.7" y1="844.6" x2="3541.6" y2="844.6"/>
		<line class="st3" x1="1854.7" y1="1275.4" x2="3541.6" y2="1275.4"/>
		<line class="st3" x1="1854.7" y1="453" x2="3541.6" y2="453"/>
		<line class="st3" x1="1854.7" y1="1706.2" x2="3541.6" y2="1706.2"/>
		<line class="st3" x1="1854.7" y1="883.8" x2="3541.6" y2="883.8"/>
		<line class="st3" x1="1854.7" y1="1314.6" x2="3541.6" y2="1314.6"/>
		<line class="st3" x1="1854.7" y1="492.1" x2="3541.6" y2="492.1"/>
		<line class="st3" x1="1854.7" y1="1745.3" x2="3541.6" y2="1745.3"/>
		<line class="st3" x1="1854.7" y1="922.9" x2="3541.6" y2="922.9"/>
		<line class="st3" x1="1854.7" y1="1353.7" x2="3541.6" y2="1353.7"/>
		<line class="st3" x1="1854.7" y1="100.5" x2="3541.6" y2="100.5"/>
		<line class="st3" x1="1854.7" y1="1784.5" x2="3541.6" y2="1784.5"/>
	</g>
</g>
<g id="Layer_4_2_" class="st1">
	<g class="st2">
		<line class="st3" x1="2170.5" y1="404.2" x2="3857.4" y2="404.2"/>
		<line class="st3" x1="2170.5" y1="834.9" x2="3857.4" y2="834.9"/>
		<line class="st3" x1="2170.5" y1="12.5" x2="3857.4" y2="12.5"/>
		<line class="st3" x1="2170.5" y1="1265.7" x2="3857.4" y2="1265.7"/>
		<line class="st3" x1="2170.5" y1="443.3" x2="3857.4" y2="443.3"/>
		<line class="st3" x1="2170.5" y1="874.1" x2="3857.4" y2="874.1"/>
		<line class="st3" x1="2170.5" y1="51.7" x2="3857.4" y2="51.7"/>
		<line class="st3" x1="2170.5" y1="1304.9" x2="3857.4" y2="1304.9"/>
		<line class="st3" x1="2170.5" y1="482.5" x2="3857.4" y2="482.5"/>
		<line class="st3" x1="2170.5" y1="913.3" x2="3857.4" y2="913.3"/>
		<line class="st3" x1="2170.5" y1="90.9" x2="3857.4" y2="90.9"/>
		<line class="st3" x1="2170.5" y1="1344.1" x2="3857.4" y2="1344.1"/>
		<line class="st3" x1="2170.5" y1="521.6" x2="3857.4" y2="521.6"/>
		<line class="st3" x1="2170.5" y1="952.4" x2="3857.4" y2="952.4"/>
		<line class="st3" x1="2170.5" y1="130" x2="3857.4" y2="130"/>
		<line class="st3" x1="2170.5" y1="1383.2" x2="3857.4" y2="1383.2"/>
		<line class="st3" x1="2170.5" y1="560.8" x2="3857.4" y2="560.8"/>
		<line class="st3" x1="2170.5" y1="991.6" x2="3857.4" y2="991.6"/>
		<line class="st3" x1="2170.5" y1="169.2" x2="3857.4" y2="169.2"/>
		<line class="st3" x1="2170.5" y1="1422.4" x2="3857.4" y2="1422.4"/>
		<line class="st3" x1="2170.5" y1="600" x2="3857.4" y2="600"/>
		<line class="st3" x1="2170.5" y1="1030.8" x2="3857.4" y2="1030.8"/>
		<line class="st3" x1="2170.5" y1="208.3" x2="3857.4" y2="208.3"/>
		<line class="st3" x1="2170.5" y1="1461.6" x2="3857.4" y2="1461.6"/>
		<line class="st3" x1="2170.5" y1="639.1" x2="3857.4" y2="639.1"/>
		<line class="st3" x1="2170.5" y1="1069.9" x2="3857.4" y2="1069.9"/>
		<line class="st3" x1="2170.5" y1="247.5" x2="3857.4" y2="247.5"/>
		<line class="st3" x1="2170.5" y1="1500.7" x2="3857.4" y2="1500.7"/>
		<line class="st3" x1="2170.5" y1="678.3" x2="3857.4" y2="678.3"/>
		<line class="st3" x1="2170.5" y1="1109.1" x2="3857.4" y2="1109.1"/>
		<line class="st3" x1="2170.5" y1="286.7" x2="3857.4" y2="286.7"/>
		<line class="st3" x1="2170.5" y1="1539.9" x2="3857.4" y2="1539.9"/>
		<line class="st3" x1="2170.5" y1="717.5" x2="3857.4" y2="717.5"/>
		<line class="st3" x1="2170.5" y1="1148.2" x2="3857.4" y2="1148.2"/>
		<line class="st3" x1="2170.5" y1="325.8" x2="3857.4" y2="325.8"/>
		<line class="st3" x1="2170.5" y1="1579" x2="3857.4" y2="1579"/>
		<line class="st3" x1="2170.5" y1="756.6" x2="3857.4" y2="756.6"/>
		<line class="st3" x1="2170.5" y1="1187.4" x2="3857.4" y2="1187.4"/>
		<line class="st3" x1="2170.5" y1="365" x2="3857.4" y2="365"/>
		<line class="st3" x1="2170.5" y1="1618.2" x2="3857.4" y2="1618.2"/>
		<line class="st3" x1="2170.5" y1="795.8" x2="3857.4" y2="795.8"/>
		<line class="st3" x1="2170.5" y1="1226.6" x2="3857.4" y2="1226.6"/>
		<line class="st3" x1="2170.5" y1="-26.6" x2="3857.4" y2="-26.6"/>
		<line class="st3" x1="2170.5" y1="1657.4" x2="3857.4" y2="1657.4"/>
	</g>
</g>
<g id="Layer_4_4_" class="st1">
	<g class="st2">
		<line class="st3" x1="2415.5" y1="668.5" x2="4102.4" y2="668.5"/>
		<line class="st3" x1="2415.5" y1="1099.3" x2="4102.4" y2="1099.3"/>
		<line class="st3" x1="2415.5" y1="276.8" x2="4102.4" y2="276.8"/>
		<line class="st3" x1="2415.5" y1="1530" x2="4102.4" y2="1530"/>
		<line class="st3" x1="2415.5" y1="707.6" x2="4102.4" y2="707.6"/>
		<line class="st3" x1="2415.5" y1="1138.4" x2="4102.4" y2="1138.4"/>
		<line class="st3" x1="2415.5" y1="316" x2="4102.4" y2="316"/>
		<line class="st3" x1="2415.5" y1="1569.2" x2="4102.4" y2="1569.2"/>
		<line class="st3" x1="2415.5" y1="746.8" x2="4102.4" y2="746.8"/>
		<line class="st3" x1="2415.5" y1="1177.6" x2="4102.4" y2="1177.6"/>
		<line class="st3" x1="2415.5" y1="355.2" x2="4102.4" y2="355.2"/>
		<line class="st3" x1="2415.5" y1="1608.4" x2="4102.4" y2="1608.4"/>
		<line class="st3" x1="2415.5" y1="786" x2="4102.4" y2="786"/>
		<line class="st3" x1="2415.5" y1="1216.7" x2="4102.4" y2="1216.7"/>
		<line class="st3" x1="2415.5" y1="394.3" x2="4102.4" y2="394.3"/>
		<line class="st3" x1="2415.5" y1="1647.5" x2="4102.4" y2="1647.5"/>
		<line class="st3" x1="2415.5" y1="825.1" x2="4102.4" y2="825.1"/>
		<line class="st3" x1="2415.5" y1="1255.9" x2="4102.4" y2="1255.9"/>
		<line class="st3" x1="2415.5" y1="433.5" x2="4102.4" y2="433.5"/>
		<line class="st3" x1="2415.5" y1="1686.7" x2="4102.4" y2="1686.7"/>
		<line class="st3" x1="2415.5" y1="864.3" x2="4102.4" y2="864.3"/>
		<line class="st3" x1="2415.5" y1="1295.1" x2="4102.4" y2="1295.1"/>
		<line class="st3" x1="2415.5" y1="472.7" x2="4102.4" y2="472.7"/>
		<line class="st3" x1="2415.5" y1="1725.9" x2="4102.4" y2="1725.9"/>
		<line class="st3" x1="2415.5" y1="903.4" x2="4102.4" y2="903.4"/>
		<line class="st3" x1="2415.5" y1="1334.2" x2="4102.4" y2="1334.2"/>
		<line class="st3" x1="2415.5" y1="511.8" x2="4102.4" y2="511.8"/>
		<line class="st3" x1="2415.5" y1="1765" x2="4102.4" y2="1765"/>
		<line class="st3" x1="2415.5" y1="942.6" x2="4102.4" y2="942.6"/>
		<line class="st3" x1="2415.5" y1="1373.4" x2="4102.4" y2="1373.4"/>
		<line class="st3" x1="2415.5" y1="551" x2="4102.4" y2="551"/>
		<line class="st3" x1="2415.5" y1="1804.2" x2="4102.4" y2="1804.2"/>
		<line class="st3" x1="2415.5" y1="981.8" x2="4102.4" y2="981.8"/>
		<line class="st3" x1="2415.5" y1="1412.6" x2="4102.4" y2="1412.6"/>
		<line class="st3" x1="2415.5" y1="590.1" x2="4102.4" y2="590.1"/>
		<line class="st3" x1="2415.5" y1="1843.3" x2="4102.4" y2="1843.3"/>
		<line class="st3" x1="2415.5" y1="1020.9" x2="4102.4" y2="1020.9"/>
		<line class="st3" x1="2415.5" y1="1451.7" x2="4102.4" y2="1451.7"/>
		<line class="st3" x1="2415.5" y1="629.3" x2="4102.4" y2="629.3"/>
		<line class="st3" x1="2415.5" y1="1882.5" x2="4102.4" y2="1882.5"/>
		<line class="st3" x1="2415.5" y1="1060.1" x2="4102.4" y2="1060.1"/>
		<line class="st3" x1="2415.5" y1="1490.9" x2="4102.4" y2="1490.9"/>
		<line class="st3" x1="2415.5" y1="237.7" x2="4102.4" y2="237.7"/>
		<line class="st3" x1="2415.5" y1="1921.7" x2="4102.4" y2="1921.7"/>
	</g>
</g>
<g>
	
		<linearGradient id="SVGID_1_" gradientUnits="userSpaceOnUse" x1="89.54" y1="934.55" x2="1775.36" y2="934.55" gradientTransform="matrix(1 0 0 -1 0 1870)">
		<stop  offset="0" style="stop-color:#4D98F7"/>
		<stop  offset="1" style="stop-color:#C94DF7"/>
	</linearGradient>
	<polygon class="st4" points="1775.4,1777.9 1775.4,93 89.5,93 89.5,1777.9 	"/>
	
		<linearGradient id="SVGID_2_" gradientUnits="userSpaceOnUse" x1="1741.2062" y1="127.7304" x2="821.9518" y2="991.1384" gradientTransform="matrix(1 0 0 -1 0 1870)">
		<stop  offset="0" style="stop-color:#FFFFFF"/>
		<stop  offset="1" style="stop-color:#000000"/>
	</linearGradient>
	<polygon class="st5" points="1775.4,1114.6 1286.4,633.5 514.2,1271.4 1177.3,1777.9 1775.4,1777.9 	"/>
	<path class="st6" d="M1206.6,1244.7c0,17.5-14.3,31.8-31.8,31.8H572.6c-17.5,0-31.8-14.3-31.8-31.8V764.4
		c0-17.5,14.3-31.8,31.8-31.8h235.9l92.5,88.8h273.8c17.5,0,31.8,14.3,31.8,31.8V1244.7z"/>
	<g>
		<path class="st0" d="M1189.7,537.6H941.3c-15.3,0-27.8,12.5-27.8,27.8V1062c0,15.3,12.5,27.8,27.8,27.8h342.5
			c15.3,0,27.8-12.5,27.8-27.8V659.5L1189.7,537.6z"/>
		<path class="st7" d="M1189.7,631.7c0,15.3,12.5,27.8,27.8,27.8h94.1l-121.9-121.9V631.7z"/>
	</g>
	<path class="st8" d="M1134,866.3H860.3l-92.5-88.8H531.8c-17.5,0-31.8,14.3-31.8,31.8v422.4v13.1c0,17.5,14.3,31.8,31.8,31.8H1134
		c17.5,0,31.8-14.3,31.8-31.8V961.2V898C1165.8,880.6,1151.5,866.3,1134,866.3z"/>
	<g>
		<path class="st0" d="M1112.6,1084.1c0,2.9-2.4,5.3-5.3,5.3H897.8c-2.9,0-5.3-2.4-5.3-5.3l0,0c0-2.9,2.4-5.3,5.3-5.3h209.6
			C1110.2,1078.9,1112.6,1081.2,1112.6,1084.1L1112.6,1084.1z"/>
		<path class="st0" d="M1112.6,1117.5c0,2.9-2.4,5.3-5.3,5.3H897.8c-2.9,0-5.3-2.4-5.3-5.3l0,0c0-2.9,2.4-5.3,5.3-5.3h209.6
			C1110.2,1112.3,1112.6,1114.6,1112.6,1117.5L1112.6,1117.5z"/>
		<path class="st0" d="M1112.6,1150.9c0,2.9-2.4,5.3-5.3,5.3H897.8c-2.9,0-5.3-2.4-5.3-5.3l0,0c0-2.9,2.4-5.3,5.3-5.3h209.6
			C1110.2,1145.7,1112.6,1148,1112.6,1150.9L1112.6,1150.9z"/>
		<path class="st0" d="M1002.5,1184.3c0,2.9-1.2,5.3-2.6,5.3H895.1c-1.5,0-2.6-2.4-2.6-5.3l0,0c0-2.9,1.2-5.3,2.6-5.3h104.8
			C1001.4,1179.1,1002.5,1181.4,1002.5,1184.3L1002.5,1184.3z"/>
	</g>
	<g>
		<g>
			<polygon class="st8" points="1030.8,727.2 1010.4,706.8 1021.7,695.5 1030.8,704.6 1065.3,670.2 1076.6,681.5 			"/>
		</g>
		<g>
			<path class="st8" d="M1043.5,780.1c-44.9,0-81.4-36.5-81.4-81.4c0-44.9,36.5-81.4,81.4-81.4c44.9,0,81.4,36.5,81.4,81.4
				C1124.9,743.6,1088.4,780.1,1043.5,780.1z M1043.5,631.3c-37.2,0-67.4,30.2-67.4,67.4c0,37.2,30.2,67.4,67.4,67.4
				c37.2,0,67.4-30.2,67.4-67.4C1110.9,661.5,1080.7,631.3,1043.5,631.3z"/>
		</g>
	</g>
</g>
</svg>
