<?xml version="1.0" encoding="utf-8"?>
<!-- Generator: Adobe Illustrator 22.0.1, SVG Export Plug-In . SVG Version: 6.00 Build 0)  -->
<svg version="1.1" id="Layer_1" xmlns="http://www.w3.org/2000/svg" xmlns:xlink="http://www.w3.org/1999/xlink" x="0px" y="0px"
	 viewBox="0 0 1864.9 1870.9" style="enable-background:new 0 0 1864.9 1870.9;" xml:space="preserve">
<style type="text/css">
	.st0{fill:#FFFFFF;}
	.st1{display:none;}
	.st2{display:inline;opacity:7.000000e-02;}
	.st3{fill:none;stroke:#FFFFFF;stroke-width:15;stroke-miterlimit:10;}
	.st4{fill:url(#SVGID_1_);}
	.st5{opacity:0.22;fill:url(#SVGID_2_);}
	.st6{fill:#EC534C;}
	.st7{fill:#EFEFEF;}
</style>
<rect x="0.7" y="6.7" class="st0" width="1860.2" height="1860.2"/>
<g id="Layer_4" class="st1">
	<g class="st2">
		<line class="st3" x1="90" y1="523.8" x2="1776.9" y2="523.8"/>
		<line class="st3" x1="90" y1="954.6" x2="1776.9" y2="954.6"/>
		<line class="st3" x1="90" y1="132.2" x2="1776.9" y2="132.2"/>
		<line class="st3" x1="90" y1="1385.4" x2="1776.9" y2="1385.4"/>
		<line class="st3" x1="90" y1="563" x2="1776.9" y2="563"/>
		<line class="st3" x1="90" y1="993.8" x2="1776.9" y2="993.8"/>
		<line class="st3" x1="90" y1="171.3" x2="1776.9" y2="171.3"/>
		<line class="st3" x1="90" y1="1424.5" x2="1776.9" y2="1424.5"/>
		<line class="st3" x1="90" y1="602.1" x2="1776.9" y2="602.1"/>
		<line class="st3" x1="90" y1="1032.9" x2="1776.9" y2="1032.9"/>
		<line class="st3" x1="90" y1="210.5" x2="1776.9" y2="210.5"/>
		<line class="st3" x1="90" y1="1463.7" x2="1776.9" y2="1463.7"/>
		<line class="st3" x1="90" y1="641.3" x2="1776.9" y2="641.3"/>
		<line class="st3" x1="90" y1="1072.1" x2="1776.9" y2="1072.1"/>
		<line class="st3" x1="90" y1="249.7" x2="1776.9" y2="249.7"/>
		<line class="st3" x1="90" y1="1502.9" x2="1776.9" y2="1502.9"/>
		<line class="st3" x1="90" y1="680.5" x2="1776.9" y2="680.5"/>
		<line class="st3" x1="90" y1="1111.2" x2="1776.9" y2="1111.2"/>
		<line class="st3" x1="90" y1="288.8" x2="1776.9" y2="288.8"/>
		<line class="st3" x1="90" y1="1542" x2="1776.9" y2="1542"/>
		<line class="st3" x1="90" y1="719.6" x2="1776.9" y2="719.6"/>
		<line class="st3" x1="90" y1="1150.4" x2="1776.9" y2="1150.4"/>
		<line class="st3" x1="90" y1="328" x2="1776.9" y2="328"/>
		<line class="st3" x1="90" y1="1581.2" x2="1776.9" y2="1581.2"/>
		<line class="st3" x1="90" y1="758.8" x2="1776.9" y2="758.8"/>
		<line class="st3" x1="90" y1="1189.6" x2="1776.9" y2="1189.6"/>
		<line class="st3" x1="90" y1="367.1" x2="1776.9" y2="367.1"/>
		<line class="st3" x1="90" y1="1620.4" x2="1776.9" y2="1620.4"/>
		<line class="st3" x1="90" y1="797.9" x2="1776.9" y2="797.9"/>
		<line class="st3" x1="90" y1="1228.7" x2="1776.9" y2="1228.7"/>
		<line class="st3" x1="90" y1="406.3" x2="1776.9" y2="406.3"/>
		<line class="st3" x1="90" y1="1659.5" x2="1776.9" y2="1659.5"/>
		<line class="st3" x1="90" y1="837.1" x2="1776.9" y2="837.1"/>
		<line class="st3" x1="90" y1="1267.9" x2="1776.9" y2="1267.9"/>
		<line class="st3" x1="90" y1="445.5" x2="1776.9" y2="445.5"/>
		<line class="st3" x1="90" y1="1698.7" x2="1776.9" y2="1698.7"/>
		<line class="st3" x1="90" y1="876.3" x2="1776.9" y2="876.3"/>
		<line class="st3" x1="90" y1="1307.1" x2="1776.9" y2="1307.1"/>
		<line class="st3" x1="90" y1="484.6" x2="1776.9" y2="484.6"/>
		<line class="st3" x1="90" y1="1737.8" x2="1776.9" y2="1737.8"/>
		<line class="st3" x1="90" y1="915.4" x2="1776.9" y2="915.4"/>
		<line class="st3" x1="90" y1="1346.2" x2="1776.9" y2="1346.2"/>
		<line class="st3" x1="90" y1="93" x2="1776.9" y2="93"/>
		<line class="st3" x1="90" y1="1777" x2="1776.9" y2="1777"/>
	</g>
</g>
<g id="Layer_4_1_" class="st1">
	<g class="st2">
		<line class="st3" x1="1854.7" y1="531.3" x2="3541.6" y2="531.3"/>
		<line class="st3" x1="1854.7" y1="962.1" x2="3541.6" y2="962.1"/>
		<line class="st3" x1="1854.7" y1="139.7" x2="3541.6" y2="139.7"/>
		<line class="st3" x1="1854.7" y1="1392.9" x2="3541.6" y2="1392.9"/>
		<line class="st3" x1="1854.7" y1="570.5" x2="3541.6" y2="570.5"/>
		<line class="st3" x1="1854.7" y1="1001.3" x2="3541.6" y2="1001.3"/>
		<line class="st3" x1="1854.7" y1="178.8" x2="3541.6" y2="178.8"/>
		<line class="st3" x1="1854.7" y1="1432" x2="3541.6" y2="1432"/>
		<line class="st3" x1="1854.7" y1="609.6" x2="3541.6" y2="609.6"/>
		<line class="st3" x1="1854.7" y1="1040.4" x2="3541.6" y2="1040.4"/>
		<line class="st3" x1="1854.7" y1="218" x2="3541.6" y2="218"/>
		<line class="st3" x1="1854.7" y1="1471.2" x2="3541.6" y2="1471.2"/>
		<line class="st3" x1="1854.7" y1="648.8" x2="3541.6" y2="648.8"/>
		<line class="st3" x1="1854.7" y1="1079.6" x2="3541.6" y2="1079.6"/>
		<line class="st3" x1="1854.7" y1="257.2" x2="3541.6" y2="257.2"/>
		<line class="st3" x1="1854.7" y1="1510.4" x2="3541.6" y2="1510.4"/>
		<line class="st3" x1="1854.7" y1="688" x2="3541.6" y2="688"/>
		<line class="st3" x1="1854.7" y1="1118.7" x2="3541.6" y2="1118.7"/>
		<line class="st3" x1="1854.7" y1="296.3" x2="3541.6" y2="296.3"/>
		<line class="st3" x1="1854.7" y1="1549.5" x2="3541.6" y2="1549.5"/>
		<line class="st3" x1="1854.7" y1="727.1" x2="3541.6" y2="727.1"/>
		<line class="st3" x1="1854.7" y1="1157.9" x2="3541.6" y2="1157.9"/>
		<line class="st3" x1="1854.7" y1="335.5" x2="3541.6" y2="335.5"/>
		<line class="st3" x1="1854.7" y1="1588.7" x2="3541.6" y2="1588.7"/>
		<line class="st3" x1="1854.7" y1="766.3" x2="3541.6" y2="766.3"/>
		<line class="st3" x1="1854.7" y1="1197.1" x2="3541.6" y2="1197.1"/>
		<line class="st3" x1="1854.7" y1="374.6" x2="3541.6" y2="374.6"/>
		<line class="st3" x1="1854.7" y1="1627.9" x2="3541.6" y2="1627.9"/>
		<line class="st3" x1="1854.7" y1="805.4" x2="3541.6" y2="805.4"/>
		<line class="st3" x1="1854.7" y1="1236.2" x2="3541.6" y2="1236.2"/>
		<line class="st3" x1="1854.7" y1="413.8" x2="3541.6" y2="413.8"/>
		<line class="st3" x1="1854.7" y1="1667" x2="3541.6" y2="1667"/>
		<line class="st3" x1="1854.7" y1="844.6" x2="3541.6" y2="844.6"/>
		<line class="st3" x1="1854.7" y1="1275.4" x2="3541.6" y2="1275.4"/>
		<line class="st3" x1="1854.7" y1="453" x2="3541.6" y2="453"/>
		<line class="st3" x1="1854.7" y1="1706.2" x2="3541.6" y2="1706.2"/>
		<line class="st3" x1="1854.7" y1="883.8" x2="3541.6" y2="883.8"/>
		<line class="st3" x1="1854.7" y1="1314.6" x2="3541.6" y2="1314.6"/>
		<line class="st3" x1="1854.7" y1="492.1" x2="3541.6" y2="492.1"/>
		<line class="st3" x1="1854.7" y1="1745.3" x2="3541.6" y2="1745.3"/>
		<line class="st3" x1="1854.7" y1="922.9" x2="3541.6" y2="922.9"/>
		<line class="st3" x1="1854.7" y1="1353.7" x2="3541.6" y2="1353.7"/>
		<line class="st3" x1="1854.7" y1="100.5" x2="3541.6" y2="100.5"/>
		<line class="st3" x1="1854.7" y1="1784.5" x2="3541.6" y2="1784.5"/>
	</g>
</g>
<g id="Layer_4_2_" class="st1">
	<g class="st2">
		<line class="st3" x1="2170.5" y1="404.2" x2="3857.4" y2="404.2"/>
		<line class="st3" x1="2170.5" y1="834.9" x2="3857.4" y2="834.9"/>
		<line class="st3" x1="2170.5" y1="12.5" x2="3857.4" y2="12.5"/>
		<line class="st3" x1="2170.5" y1="1265.7" x2="3857.4" y2="1265.7"/>
		<line class="st3" x1="2170.5" y1="443.3" x2="3857.4" y2="443.3"/>
		<line class="st3" x1="2170.5" y1="874.1" x2="3857.4" y2="874.1"/>
		<line class="st3" x1="2170.5" y1="51.7" x2="3857.4" y2="51.7"/>
		<line class="st3" x1="2170.5" y1="1304.9" x2="3857.4" y2="1304.9"/>
		<line class="st3" x1="2170.5" y1="482.5" x2="3857.4" y2="482.5"/>
		<line class="st3" x1="2170.5" y1="913.3" x2="3857.4" y2="913.3"/>
		<line class="st3" x1="2170.5" y1="90.9" x2="3857.4" y2="90.9"/>
		<line class="st3" x1="2170.5" y1="1344.1" x2="3857.4" y2="1344.1"/>
		<line class="st3" x1="2170.5" y1="521.6" x2="3857.4" y2="521.6"/>
		<line class="st3" x1="2170.5" y1="952.4" x2="3857.4" y2="952.4"/>
		<line class="st3" x1="2170.5" y1="130" x2="3857.4" y2="130"/>
		<line class="st3" x1="2170.5" y1="1383.2" x2="3857.4" y2="1383.2"/>
		<line class="st3" x1="2170.5" y1="560.8" x2="3857.4" y2="560.8"/>
		<line class="st3" x1="2170.5" y1="991.6" x2="3857.4" y2="991.6"/>
		<line class="st3" x1="2170.5" y1="169.2" x2="3857.4" y2="169.2"/>
		<line class="st3" x1="2170.5" y1="1422.4" x2="3857.4" y2="1422.4"/>
		<line class="st3" x1="2170.5" y1="600" x2="3857.4" y2="600"/>
		<line class="st3" x1="2170.5" y1="1030.8" x2="3857.4" y2="1030.8"/>
		<line class="st3" x1="2170.5" y1="208.3" x2="3857.4" y2="208.3"/>
		<line class="st3" x1="2170.5" y1="1461.6" x2="3857.4" y2="1461.6"/>
		<line class="st3" x1="2170.5" y1="639.1" x2="3857.4" y2="639.1"/>
		<line class="st3" x1="2170.5" y1="1069.9" x2="3857.4" y2="1069.9"/>
		<line class="st3" x1="2170.5" y1="247.5" x2="3857.4" y2="247.5"/>
		<line class="st3" x1="2170.5" y1="1500.7" x2="3857.4" y2="1500.7"/>
		<line class="st3" x1="2170.5" y1="678.3" x2="3857.4" y2="678.3"/>
		<line class="st3" x1="2170.5" y1="1109.1" x2="3857.4" y2="1109.1"/>
		<line class="st3" x1="2170.5" y1="286.7" x2="3857.4" y2="286.7"/>
		<line class="st3" x1="2170.5" y1="1539.9" x2="3857.4" y2="1539.9"/>
		<line class="st3" x1="2170.5" y1="717.5" x2="3857.4" y2="717.5"/>
		<line class="st3" x1="2170.5" y1="1148.2" x2="3857.4" y2="1148.2"/>
		<line class="st3" x1="2170.5" y1="325.8" x2="3857.4" y2="325.8"/>
		<line class="st3" x1="2170.5" y1="1579" x2="3857.4" y2="1579"/>
		<line class="st3" x1="2170.5" y1="756.6" x2="3857.4" y2="756.6"/>
		<line class="st3" x1="2170.5" y1="1187.4" x2="3857.4" y2="1187.4"/>
		<line class="st3" x1="2170.5" y1="365" x2="3857.4" y2="365"/>
		<line class="st3" x1="2170.5" y1="1618.2" x2="3857.4" y2="1618.2"/>
		<line class="st3" x1="2170.5" y1="795.8" x2="3857.4" y2="795.8"/>
		<line class="st3" x1="2170.5" y1="1226.6" x2="3857.4" y2="1226.6"/>
		<line class="st3" x1="2170.5" y1="-26.6" x2="3857.4" y2="-26.6"/>
		<line class="st3" x1="2170.5" y1="1657.4" x2="3857.4" y2="1657.4"/>
	</g>
</g>
<g>
	
		<linearGradient id="SVGID_1_" gradientUnits="userSpaceOnUse" x1="89.5395" y1="934.55" x2="1775.3605" y2="934.55" gradientTransform="matrix(1 0 0 -1 0 1870)">
		<stop  offset="0" style="stop-color:#4D98F7"/>
		<stop  offset="1" style="stop-color:#C94DF7"/>
	</linearGradient>
	<polygon class="st4" points="1775.4,1777.9 1775.4,93 89.5,93 89.5,1777.9 	"/>
	
		<linearGradient id="SVGID_2_" gradientUnits="userSpaceOnUse" x1="1718.7975" y1="-3.4058" x2="818.9877" y2="875.785" gradientTransform="matrix(1 0 0 -1 0 1870)">
		<stop  offset="0" style="stop-color:#FFFFFF"/>
		<stop  offset="1" style="stop-color:#000000"/>
	</linearGradient>
	<polygon class="st5" points="1775.4,1274.7 1387.3,893.8 1380.5,1349 1140.4,1361.6 1121.2,1400.8 1114.2,1407.4 791.4,1408 
		784,1400.8 764.7,1361.6 517.3,1355.2 1072.2,1777.9 1775.4,1777.9 	"/>
	<path class="st6" d="M980.6,518.3c2.5,0,4.9-0.9,6.8-2.8c3.8-3.8,3.8-9.9,0-13.6l-38.5-38.5c-0.4-0.4-0.9-0.9-1.5-1.2
		c-0.2-0.2-0.5-0.3-0.8-0.4c-0.3-0.2-0.6-0.3-0.9-0.5c-0.3-0.1-0.7-0.2-1-0.3c-0.3-0.1-0.5-0.2-0.8-0.2c-1.2-0.2-2.5-0.2-3.8,0
		c-0.3,0.1-0.5,0.2-0.8,0.2c-0.3,0.1-0.7,0.2-1,0.3c-0.3,0.1-0.6,0.3-0.9,0.5c-0.3,0.1-0.5,0.2-0.8,0.4c-0.5,0.4-1,0.8-1.5,1.2
		l-38.5,38.5c-3.8,3.8-3.8,9.9,0,13.6c1.9,1.9,4.4,2.8,6.8,2.8c2.5,0,4.9-0.9,6.8-2.8l22.1-22.1v87.6c0,5.3,4.3,9.6,9.6,9.6
		s9.6-4.3,9.6-9.6v-87.6l22.1,22.1C975.7,517.4,978.2,518.3,980.6,518.3z"/>
	<path class="st0" d="M1032.8,441.1c-0.7-0.1-11.8-1.6-22.6,0c-0.2,0-0.5,0.1-0.7,0.1c-2.3,0-4.4-1.7-4.8-4.1
		c-0.4-2.6,1.4-5.1,4-5.5c7.4-1.1,14.8-0.9,19.7-0.6c-3.2-37.4-34.2-66.9-71.5-66.9c-22.6,0-45.4,11.5-59.2,29.5
		c9.4,8,15.4,19.8,15.4,33.1c0,2.7-2.2,4.8-4.8,4.8c-2.7,0-4.8-2.2-4.8-4.8c0-11.9-6.2-22.3-15.5-28.3c-1.1-0.7-2.2-1.3-3.4-1.9
		c-0.3-0.2-0.7-0.3-1-0.5c-1.3-0.6-2.6-1.1-4-1.5c-0.2,0-0.3-0.1-0.5-0.1c-1.2-0.4-2.5-0.6-3.8-0.9c-0.4-0.1-0.7-0.1-1.1-0.2
		c-1.5-0.2-2.9-0.3-4.4-0.3c-18.6,0-33.7,15.1-33.7,33.7c0,0.4,0,0.8,0.1,1.2l0.1,1l0,0.8c0,0.6-0.1,1.2-0.1,1.9v3l-2.7,1.3
		c-18,8.6-31,29.4-31,49.4c0,28.8,23.4,52.3,52.3,52.3H923v-20.9l-5.6,5.6c-3.8,3.8-8.7,5.6-13.6,5.6s-9.9-1.9-13.6-5.6
		c-7.5-7.5-7.5-19.7,0-27.3l38.5-38.5l0,0c0.9-0.9,1.9-1.7,2.9-2.4c0.5-0.3,1-0.5,1.5-0.8c0.6-0.3,1.2-0.7,1.8-1
		c0.6-0.3,1.3-0.4,2-0.6c0.6-0.2,1.1-0.4,1.6-0.5c2.5-0.5,5.1-0.5,7.6,0c0.6,0.1,1.1,0.3,1.6,0.5c0.7,0.2,1.3,0.3,2,0.6
		c0.6,0.3,1.2,0.6,1.8,1c0.5,0.3,1,0.5,1.5,0.8c1.1,0.7,2,1.5,2.9,2.4l0,0l38.5,38.5c7.5,7.5,7.5,19.7,0,27.3
		c-3.8,3.8-8.7,5.6-13.6,5.6s-9.9-1.9-13.6-5.6l-5.6-5.6v20.9h11.2c0.3,0,0.6,0,0.8,0l1-0.1l1.3,0.1c0.3,0,0.6,0,0.8,0h47.2
		c26.6,0,48.3-21.7,48.3-48.3C1072.2,466.1,1055.3,445.4,1032.8,441.1z"/>
	<path class="st7" d="M1371,884h-220.8c-2.9,0-5.6,0.5-8.2,1.4v476.3c2.6,0.9,5.4,1.4,8.2,1.4H1371c14.3,0,25.9-11.7,25.9-25.9
		V909.9C1396.9,895.6,1385.2,884,1371,884z M1260.6,1292.5c-11.1,0-20.1-9-20.1-20.1s9-20.1,20.1-20.1c11.1,0,20.1,9,20.1,20.1
		C1280.7,1283.5,1271.7,1292.5,1260.6,1292.5z M1353.9,1040.4h-186.7v-17.8h186.7V1040.4z M1353.9,1004.7h-186.7v-17.8h186.7V1004.7
		z"/>
	<circle class="st6" cx="1260.6" cy="1272.4" r="8.7"/>
	<path class="st7" d="M537.2,884c-14.3,0-25.9,11.7-25.9,25.9V1337c0,14.3,11.7,25.9,25.9,25.9H758c2.9,0,5.6-0.5,8.2-1.4V885.3
		c-2.6-0.9-5.4-1.4-8.2-1.4L537.2,884L537.2,884z M647.6,1292.5c-11.1,0-20.1-9-20.1-20.1s9-20.1,20.1-20.1s20.1,9,20.1,20.1
		C667.7,1283.5,658.7,1292.5,647.6,1292.5z M740.9,1040.4H554.3v-17.8h186.7V1040.4z M740.9,1004.7H554.3v-17.8h186.7V1004.7z"/>
	<circle class="st6" cx="647.6" cy="1272.4" r="8.7"/>
	<path class="st0" d="M1090.6,827.3h-273c-17.6,0-32.1,14.4-32.1,32.1v528.2c0,17.6,14.4,32.1,32.1,32.1h273
		c17.6,0,32.1-14.4,32.1-32.1V859.4C1122.7,841.7,1108.2,827.3,1090.6,827.3z M954.1,1332.5c-13.7,0-24.9-11.1-24.9-24.9
		s11.1-24.9,24.9-24.9c13.7,0,24.9,11.1,24.9,24.9C979,1321.4,967.8,1332.5,954.1,1332.5z M1069.5,1020.8H838.7v-22.1h230.8V1020.8z
		 M1069.5,976.7H838.7v-22.1h230.8V976.7z"/>
	<circle class="st6" cx="954.1" cy="1307.6" r="10.8"/>
	<circle class="st0" cx="943.3" cy="752.9" r="106.1"/>
	<path class="st6" d="M943.3,637.9c-63.4,0-115,51.6-115,115c0,63.4,51.6,115,115,115s115-51.6,115-115S1006.8,637.9,943.3,637.9z
		 M939.5,668.1c0-2.1,1.7-3.8,3.8-3.8c2.1,0,3.8,1.7,3.8,3.8v3.8c0,2.1-1.7,3.8-3.8,3.8c-2.1,0-3.8-1.7-3.8-3.8V668.1z M862.8,756.3
		H859c-2.1,0-3.8-1.7-3.8-3.8c0-2.1,1.7-3.8,3.8-3.8h3.8c2.1,0,3.8,1.7,3.8,3.8C866.7,754.5,864.9,756.3,862.8,756.3z M889.1,812.1
		l-2.7,2.7c-0.7,0.7-1.7,1.1-2.7,1.1s-2-0.4-2.7-1.1c-1.5-1.5-1.5-3.9,0-5.4l2.7-2.7c1.5-1.5,3.9-1.5,5.4,0
		C890.6,808.1,890.6,810.6,889.1,812.1z M889.1,698.2c-0.7,0.7-1.7,1.1-2.7,1.1s-2-0.4-2.7-1.1l-2.7-2.7c-1.5-1.5-1.5-3.9,0-5.4
		c1.5-1.5,3.9-1.5,5.4,0l2.7,2.7C890.6,694.3,890.6,696.7,889.1,698.2z M947.2,836.8c0,2.1-1.7,3.8-3.8,3.8c-2.1,0-3.8-1.7-3.8-3.8
		v-3.8c0-2.1,1.7-3.8,3.8-3.8c2.1,0,3.8,1.7,3.8,3.8V836.8z M943.3,767.8c-7.1,0-13.1-4.9-14.8-11.5h-27.4c-2.1,0-3.8-1.7-3.8-3.8
		c0-2.1,1.7-3.8,3.8-3.8h27.4c1.4-5.4,5.6-9.6,11-11v-38.9c0-2.1,1.7-3.8,3.8-3.8c2.1,0,3.8,1.7,3.8,3.8v38.9
		c6.6,1.7,11.5,7.7,11.5,14.8C958.7,760.9,951.8,767.8,943.3,767.8z M1005.7,814.8c-0.7,0.7-1.7,1.1-2.7,1.1s-2-0.4-2.7-1.1
		l-2.7-2.7c-1.5-1.5-1.5-3.9,0-5.4c1.5-1.5,3.9-1.5,5.4,0l2.7,2.7C1007.2,810.9,1007.2,813.3,1005.7,814.8z M1005.7,695.5l-2.7,2.7
		c-0.7,0.7-1.7,1.1-2.7,1.1s-2-0.4-2.7-1.1c-1.5-1.5-1.5-3.9,0-5.4l2.7-2.7c1.5-1.5,3.9-1.5,5.4,0
		C1007.2,691.6,1007.2,694,1005.7,695.5z M1027.7,756.3h-3.8c-2.1,0-3.8-1.7-3.8-3.8c0-2.1,1.7-3.8,3.8-3.8h3.8
		c2.1,0,3.8,1.7,3.8,3.8C1031.5,754.5,1029.8,756.3,1027.7,756.3z"/>
	<circle class="st6" cx="943.3" cy="752.4" r="7.7"/>
</g>
</svg>
